<svg xmlns="http://www.w3.org/2000/svg" width="358.873" height="1103.498" viewBox="0 0 358.873 1103.498">
  <path id="Subtraction_17" data-name="Subtraction 17" d="M358.874,1145.651h0c-25.713-1.723-49.783-3.619-71.542-5.634-45.169-4.183-84.69-8.8-117.466-13.731-15.8-2.376-30.4-4.878-43.391-7.437-12.642-2.49-24.131-5.106-34.148-7.777a265.393,265.393,0,0,1-25.643-8.087,115.57,115.57,0,0,1-17.876-8.367A44.569,44.569,0,0,1,37.959,1086a18.833,18.833,0,0,1-4.558-8.837,16.291,16.291,0,0,1,.837-8.607,30.523,30.523,0,0,1,5.249-8.753c4.545-5.535,11.469-11.37,21.169-17.84,18-12.007,42.948-24.348,67.074-36.283,22.047-10.907,44.844-22.184,61.671-32.931,9.051-5.781,15.737-10.971,20.441-15.868a37.151,37.151,0,0,0,5.869-7.713,17.529,17.529,0,0,0,2.3-7.538c.584-12.418-6.561-23.192-22.485-33.906-14.351-9.656-34.57-18.391-55.977-27.64l-.005,0c-14.925-6.448-30.359-13.116-45.557-20.773C76.713,850.6,62.58,842,50.783,833a163.807,163.807,0,0,1-18.458-16.295,125.4,125.4,0,0,1-15.154-18.959A108.218,108.218,0,0,1,6.226,775.7,110.815,110.815,0,0,1,.4,750.128a66.639,66.639,0,0,1-.248-11.649A63.661,63.661,0,0,1,1.9,727.39a71.8,71.8,0,0,1,8.97-20.653,106.737,106.737,0,0,1,15.391-18.874,178.9,178.9,0,0,1,20.764-17.4c7.4-5.375,15.611-10.686,25.09-16.237,8.451-4.95,17.731-9.981,28.369-15.379,19.773-10.035,41.435-19.885,62.384-29.411,20.93-9.517,42.573-19.359,62.623-29.5,10.8-5.463,20.26-10.565,28.935-15.6,9.742-5.654,18.239-11.073,25.975-16.567a204.4,204.4,0,0,0,21.984-17.837,126.112,126.112,0,0,0,16.962-19.408,85.3,85.3,0,0,0,10.907-21.282,72.2,72.2,0,0,0,3.822-23.458c-.1-38.284-18.581-68.079-56.5-91.089-32.759-19.88-74.492-31.489-111.312-41.731h-.006c-19.181-5.336-37.3-10.375-51.626-15.953A109.7,109.7,0,0,1,96.1,308.065c-5.349-3.364-9.129-6.824-11.558-10.578-1.77-2.735-2.361-6.19-1.758-10.267a43.253,43.253,0,0,1,5.011-13.6A124.2,124.2,0,0,1,98.654,257.25c4.358-5.683,9.671-11.942,15.792-18.6,21.177-23.041,52.844-51.863,94.121-85.667,36.726-30.077,74.417-58.608,99.568-77.247,27.018-20.023,45.476-33.037,46.249-33.582l4.49.033V1145.65Z" transform="translate(-0.001 -42.152)" fill="#f3f3f3"/>
</svg>
