<svg xmlns="http://www.w3.org/2000/svg" width="94.948" height="140.164" viewBox="0 0 94.948 140.164">
  <g id="Group_21" data-name="Group 21" transform="translate(-3510.676 -851.635)">
    <path id="Path_4391" data-name="Path 4391" d="M3574.731,983.751l-7.645,2.064c-1.731,1.215-3.82.9-5.734,1.336a15.992,15.992,0,0,1-2.156.022c-2.561-.013-5.121-.006-7.681,0a5.411,5.411,0,0,1-2.121-.245,1.251,1.251,0,0,1-.692-.709c.335-1.182,1.353-.92,2.157-.935,3.167-.059,6.338.084,9.5-.058a9.415,9.415,0,0,0,7.574-4.282c1.709-2.425.975-4.61-.545-6.662a67.25,67.25,0,0,1-7.455-13.818c-1.857-4.331-3.952-8.571-5.409-13.063a5.658,5.658,0,0,0-3.1-3.16c-.341-1.241.567-2.135.882-3.193a55.346,55.346,0,0,0,2.3-5.3c1.254-.438.052-1.673.743-2.3,3.423-.093,6.847-.437,10.183.794a42.44,42.44,0,0,0,8.187,2.241,8.98,8.98,0,0,0,10.428-6.56,32.653,32.653,0,0,0,1-9.024c.005-1.688-.653-2.356-2.259-2.255a10.418,10.418,0,0,1-3.051-.844c-.46-.231-1.042-.534-.308-1.137a2.615,2.615,0,0,1,1.659-.133,14.291,14.291,0,0,0,9.582-1.272c2.289-.944,3.091-2.946,3.646-5.125.163-.161.308-.155.435.045a3.015,3.015,0,0,1,.426,3.072c-.471,1.511.136,2.582.832,3.75a44.9,44.9,0,0,1,6.49,24.68,50.027,50.027,0,0,1-12.893,32.77c-3.545,3.95-8.218,6.516-13.159,8.494C3575.938,983.188,3575.339,983.479,3574.731,983.751Z" transform="translate(2.997 4.601)" fill="#e7e071"/>
    <path id="Path_4392" data-name="Path 4392" d="M3518.051,881.75c.9-1.864.369-3.8.26-5.707a28.685,28.685,0,0,1,1.681-11.669c1.739-.71,2.053,1.032,3.128,1.845.249-2.913,2.734-3.189,4.687-4.1.182-.085.424-.187.587-.108,2.431,1.18,5.1.879,7.65,1.288,4.575.733,8.529,3.165,12.547,5.246,2.076,1.074,4.553,1.754,6.152,3.386,2.482,2.533,5.86,3.572,8.486,5.9a70.3,70.3,0,0,0,7.55,6.016,5.222,5.222,0,0,1,1.638,1.975,30.5,30.5,0,0,0,4.045,5.681c1.094.646,1.809,1.829,3.127,2.172a.582.582,0,0,1,.409.8c-.347,1.012.285,1.046,1.028,1.206,1.583.341,2.361,1.574,1.511,2.992-.933,1.556-.372,2.149.922,2.675.483.2.425,1.071,1.077.9.919-.239.2-1.081.45-1.521a2.963,2.963,0,0,0-.528-3.782c-.3-.332-.033-.764.322-1.039.991-.134,1.611.592,2.361,1.015a1.432,1.432,0,0,1,.489,1.04,5.79,5.79,0,0,0,.778,3.07,4.181,4.181,0,0,1-2.089,5.639c-.316.153-.291.223-.307.509a9.371,9.371,0,0,1-2.4,5.558c-.5.6-.517.874,0,1.477,1,1.167.778,1.947-.651,2.2-1.453.261-1.068,1.233-.592,1.74.783.838.684,1.328-.156,1.9a5.752,5.752,0,0,1-3.138-1.212,2.319,2.319,0,0,1-.95-3.005c1.317-3.691-.569-7.2-.52-10.808,0-.094-.207-.121-.359-.08-.988-1.1-.786-2.6-1.316-3.849a31.111,31.111,0,0,0-10.623-15.121,112.309,112.309,0,0,0-20.332-12.711c-.485-.24-1-.436-1.177-1.019a1.536,1.536,0,0,0-.914-1.642c-1.581-.921-3.079-2.064-5.068-1.946a4.658,4.658,0,0,1-1.741-.467c-1.108-.377-2.227,0-3.267-.039-3.351-.133-3.5,1.985-3.68,4.3-.025.323-.217.647.167,1.025,1.024-.116,1.406-1.019,1.928-1.76.561-.794,1.123-1.6,2.274-.882a1.547,1.547,0,0,1-.307,1.862c-1.158,1.027-1.1,2.351-1.191,3.673-.247,3.548.506,7.046.52,10.584a8.3,8.3,0,0,1-5.042.928c-1.231-.34-2.515-.393-3.759-.659A6.433,6.433,0,0,1,3518.051,881.75Z" transform="translate(0.581 0.815)" fill="#2b2b2b"/>
    <path id="Path_4393" data-name="Path 4393" d="M3523.662,857.882c5.681-6.436,12.87-7.236,20.667-5.365a54.845,54.845,0,0,1,16.273,6.861c.892.879,1.905,1.605,1.4,3.212-.355,1.12.727.843,1.321.815,1.143-.052,2.635-.8,2.959.995.282,1.564-1.073,1.914-2.29,2.254-.769.215-1.7.546-1.549,1.542a1.488,1.488,0,0,0,1.894,1.3c.97-.131,1.064.591.817,1.346-.126.387-.473.648-.66,1a1.03,1.03,0,0,0,.391,1.4.864.864,0,0,0,1.384-.2c.72-1.022,1.524-1.75,2.842-.925,2.821.7,3.643,2.227,2.817,5.185a2.574,2.574,0,0,0,.683,2.395c.629.72,1.152-.264,1.747-.407a3.074,3.074,0,0,1,2.64,2.372,1.964,1.964,0,0,1,.047.572,5.2,5.2,0,0,1-.7,1.449c.424.442.971-.245,1.357.143a3.645,3.645,0,0,1,.6,2.736.644.644,0,0,1,.534-.71.79.79,0,0,1,.914.618c.352,1.011.944,1.905,1.338,2.893a6.531,6.531,0,0,1-.18,1.96c-1.649,2.233-2.364,2.292-4.116.2a5.087,5.087,0,0,0-2.186-1.69c-1.31-.447-1.7-1.646-2.152-2.746-.23-.562-.31-1.189-.824-1.577-2.942-2.22-5.487-4.929-8.356-7.178-2.062-1.615-4.534-2.882-6.586-4.561-3.106-2.543-7.1-3.465-10.179-6.06-1.323-1.115-3.425-1.134-4.984-2.109-2.895-1.811-6.157-2.647-9.4-3.522-1.955-.528-3.955.061-5.986-.218C3522.825,861.416,3522.438,861.163,3523.662,857.882Z" transform="translate(0.973 0)" fill="#090909"/>
    <path id="Path_4394" data-name="Path 4394" d="M3512.029,931.293a14.225,14.225,0,0,0,1.223-3.64,42.817,42.817,0,0,1,11.135-17.927,27.152,27.152,0,0,0,1.908-2.332.352.352,0,0,1,.522.118,1.708,1.708,0,0,1-.24,1.474c-1.455,2.037-3.424,3.608-4.986,5.569-2.289,2.877-2.912,6.322-3.654,9.708a19.736,19.736,0,0,0-.156,6.828c.2,1.51.52,2.7,1.894,3.46a3.379,3.379,0,0,1-.281,2.419c-1.484,1.564-.841,3.09-.044,4.731a33.09,33.09,0,0,0,5.138,7.9,8.1,8.1,0,0,0,3.843,2.487c1.6.439,2.7-.222,2.643-1.754-.137-3.4-.29-6.839-2.489-9.731a3.138,3.138,0,0,1,1.039-2.247,1.5,1.5,0,0,1,2.384.981c1.533,4.943,3.6,9.775,3.408,15.111-.119,3.4-1.547,4.618-4.9,4.1a35.851,35.851,0,0,1-6.793-1.963c-1.913-.7-2.574-.365-2.821,1.656a14.468,14.468,0,0,0,1.412,8.264c.979,2,1.76,4.091,2.92,6,.346.57.794,1.252.416,1.888-.469.788-1.209.056-1.83.095-2.706-1.957-4.213-4.837-5.786-7.641a56.147,56.147,0,0,1-7.066-22.331,17.714,17.714,0,0,1-.17-2.654c-.013-.563-.011-1.126,0-1.689-.135-1.7.514-3.343.418-5.045a9.73,9.73,0,0,1,.528-3.291A1.55,1.55,0,0,1,3512.029,931.293Z" transform="translate(0 4.389)" fill="#94b32a"/>
    <path id="Path_4395" data-name="Path 4395" d="M3523.912,857.426a7,7,0,0,1-.059,1.612c-.443,1.643.263,1.753,1.749,1.9,3.454.35,6.9-.235,10.412,1.139,3.067,1.2,5.814,3.224,8.977,3.884,2.206.461,3.26,2.279,5.129,3.039a19.2,19.2,0,0,1,2.327.851c3.317,1.844,6.08,4.515,9.405,6.274,1.8.953,2.9,2.554,4.483,3.649,2.1,1.453,3.539,3.669,5.831,4.912a1.73,1.73,0,0,1,1,1.758,2.873,2.873,0,0,0,1.816,2.593c1.111.819,2.357,1.588,1.213,3.249-1.69-.279-1.947-2.065-2.527-3.064a25.721,25.721,0,0,0-7.5-7.875c-2.358-1.72-4.466-3.77-6.957-5.348a3.516,3.516,0,0,0-1.758-.755c-.548-.028-1.2-.2-1.387-.7-.854-2.259-3.058-2.47-4.832-3.372-2.235-1.137-4.357-2.509-6.632-3.555a47.48,47.48,0,0,0-7.169-2.928c-2.209-.613-4.42-.149-6.487-.936-.167-.064-.508.125-.578.04-1.9-2.3-3.686-.036-5.417.289-1.2.226-1.31,1.973-1.754,3.287-1.333-.718-1.668-2.595-3.357-2.641A17.809,17.809,0,0,1,3523.912,857.426Z" transform="translate(0.723 0.456)" fill="#1d1d1d"/>
    <path id="Path_4396" data-name="Path 4396" d="M3566.3,871.931c-1.155-.727-1.9-.266-2.363.86-.206.506-.253,1.041-1.053.874a2.624,2.624,0,0,1-1.953-1.56.893.893,0,0,1,.411-1.338c.48-.273,1.094-.611.8-1.2-.433-.871-.85.072-1.274.185-.442.117-1,.08-.929-.369.167-1.024-1.926-1.122-.873-2.446a3.3,3.3,0,0,1,2.5-1.477c1.066-.038,1.773-.551,1.624-1.573-.17-1.155-1.075-.839-1.909-.64a10.23,10.23,0,0,1-2.2.149c-.567.01-1.088-.441-.729-.852,1.315-1.508.142-2.559-.5-3.731a84.378,84.378,0,0,1,21.078,15.438,2.256,2.256,0,0,1-3.279.169,27.107,27.107,0,0,0-2.472-1.689c-.215-.154-.462-.515-.645-.41-1.09.624-1.917.041-2.719-.546C3568.585,870.871,3567.452,871.444,3566.3,871.931Z" transform="translate(3.718 0.566)" fill="#141415"/>
    <path id="Path_4397" data-name="Path 4397" d="M3525.853,909.158l-.178.006-.178,0c.293-2.373-1.174-4.3-1.64-6.481a69.223,69.223,0,0,0-2.221-6.669c-1.447-4.106-1.013-7.764,1.771-11.124l3.758.711a1.734,1.734,0,0,0-.042.984c1.362,3.4,1.77,7.074,3.028,10.5.511,1.394.991,2.8,1.606,4.152a2.716,2.716,0,0,1,.342,2.138c-.891.558-1.132-.254-1.468-.741-.367-.534-.512-1.21-1.05-1.639-1.086-1.121-1.126-2.845-2.522-4.41.186,3.006.506,5.515.741,8.026A4.688,4.688,0,0,1,3525.853,909.158Z" transform="translate(0.8 2.621)" fill="#acc23f"/>
    <path id="Path_4398" data-name="Path 4398" d="M3565.681,871.09c.427-.887,1.375-1.017,2.115-1.448.306-.179.855-.241.9.047.312,2.161,1.311.034,1.934.354.227.541-.692.819-.365,1.388,1.533-.831,3.242-.465,4.651,1.313,1.039,1.312,2.17.976,3.406.664a38.715,38.715,0,0,1,8.111,9.744c.6,1.139.911,2.438,1.9,3.356a.874.874,0,0,1,.138.357c-.177.669.255,1.153.506,1.7.244.523.339,1.119-.175,1.473-.582.4-.973-.129-1.344-.516a2.11,2.11,0,0,1-.241-.522c-.143-1.844-1.34-3.143-2.361-4.532a2.964,2.964,0,0,1-1.171-1.55,4.383,4.383,0,0,0-2.368-2.582c-1.624-.947-2.986-2.263-4.636-3.185-.855-.477-.387-.832.21-1.141-.827-.009-1.683-.668-2.727-.353-.158.086-.322.161-.484.235-1.046.4-2.208.639-2.608,1.917-.013.086-.026.172-.04.257a1.868,1.868,0,0,1-1.855,1.213c-.931.025-.5-1.062-.787-1.612a2.11,2.11,0,0,1,.141-2.7c.772-.922-1.023-3.384-2.265-3.263C3565.767,871.749,3565.744,871.417,3565.681,871.09Z" transform="translate(4.335 1.407)" fill="#272727"/>
    <path id="Path_4399" data-name="Path 4399" d="M3592.106,911.264a1.236,1.236,0,0,0-.232-.049c-.326.361-.712.72-1.207.454a3.29,3.29,0,0,0-2.483-.12c-.876.2-2.137.164-1.323-1.427.356-.7-.214-1.1-.356-1.646-.477-1.828-1.391-3.739.779-5.22.943-.644.271-1.287-.211-1.824-.433-.481-1.136-.334-1.678-.589-1.721-1-1.912-2.6-1.717-4.349.985-.659,1.757-.09,2.441.511.625.549,1.1.617,1.579-.11,1.945-.329,1.748,1.839,2.945,2.464.473-.208.3-.934.788-1.181A26.927,26.927,0,0,1,3592.106,911.264Z" transform="translate(5.748 3.512)" fill="#6a6a6b"/>
    <path id="Path_4400" data-name="Path 4400" d="M3591.271,899.013c-.092.658-.183,1.317-.284,1.974-.007.05-.1.085-.15.127-1.666-.537-1.542-2.809-3.226-3.329-1.082.337-1.895.757-1.56-1.2.372-2.185-.323-4.446-.313-6.69,0-.653-.335-1.332.3-1.877.337.175.79.575.987.475.37-.189.176-.693.055-1.05-.2-.606-1.137-1.126-.184-1.846,2.089,3.861,3.806,7.844,4.012,12.318A1.409,1.409,0,0,0,3591.271,899.013Z" transform="translate(5.909 2.677)" fill="#5b5b5b"/>
    <path id="Path_4401" data-name="Path 4401" d="M3523.624,885.249c-.036.461.111,1.087-.135,1.356-3.523,3.863-1.555,7.952-.593,12.018.351,1.487,1.463,2.768,1.179,4.42a70.032,70.032,0,0,1-6.024-22.737A7.11,7.11,0,0,0,3523.624,885.249Z" transform="translate(0.581 2.26)" fill="#c2cc50"/>
    <path id="Path_4402" data-name="Path 4402" d="M3586.813,885.511c-1.386-.693-1.658-2.016-1.9-3.356A9.458,9.458,0,0,1,3586.813,885.511Z" transform="translate(5.851 2.405)" fill="#5b5b5b"/>
    <path id="Path_4403" data-name="Path 4403" d="M3549.4,983.7a22.814,22.814,0,0,1-7.355-.9c-.312-1.5.864-1.121,1.488-1.024,3.954.613,7.438-.747,10.756-2.582,3.281-1.813,4.707-4.078,2.836-7.792a190.94,190.94,0,0,1-9.132-22.605,5.813,5.813,0,0,0-.531-1.086c-1.457-2.4-1.456-2.4,1.365-2.688.814.492,1.258.449,1.615-.632.339-1.027.3-2.407,1.707-2.839,2.345.159,2.938,2.007,3.641,3.761,3.067,7.662,6.109,15.322,10.168,22.555,1.237,2.206,3.146,3.972,3.942,6.48a2.956,2.956,0,0,1,.057,2.216c-1.865,4.887-5.509,6.886-10.581,6.752-2.7-.071-5.394-.029-8.091,0C3550.646,983.326,3549.916,983.043,3549.4,983.7Z" transform="translate(2.468 7.087)" fill="#d6d656"/>
    <path id="Path_4404" data-name="Path 4404" d="M3583.605,917.548c2.846,0,2.8,0,2.858,2.78a32.717,32.717,0,0,1-.811,8.568c-1.416,5.722-5.816,8.416-11.657,7.429a45.845,45.845,0,0,1-8.116-2.24c-3.235-1.182-6.542-.633-9.826-.742-.971.23-1.436-.592-2.065-1.029-2.735-1.9-4.677-1.608-6.861.929-2.158,2.507-2.8,5.623-3.692,8.652-.289.55-.177,1.5-.972,1.547-.913.049-.99-.9-1.235-1.551a5.4,5.4,0,0,0-1.479-2.288c-1.4-3.134-1.125-4.713,1.171-7.032a42.834,42.834,0,0,1,5.03-4.007,17.314,17.314,0,0,0-2.765,1.667c-.6.388-1.106,1.031-1.963.8-.931-1.249.045-2.034.787-2.727a9.775,9.775,0,0,1,8.214-2.611c6.164.8,12,2.585,17.119,6.282a14.745,14.745,0,0,0,3.234,1.658c4.743,1.89,5.74,1.66,9.084-2.223a15.31,15.31,0,0,0,3.431-9.932C3583.132,920.159,3582.714,918.761,3583.605,917.548Z" transform="translate(2.224 5.195)" fill="#d3d554"/>
    <path id="Path_4405" data-name="Path 4405" d="M3583.991,917.771c.026,3.559.181,7.114-1.232,10.528a17.5,17.5,0,0,1-5.4,6.694c-1.164.961-2.669.769-4.067.31a30.738,30.738,0,0,1-7.392-3.657c-4.336-2.875-9.243-4.186-14.343-5.041a10.3,10.3,0,0,0-8.495,1.99c-.745.581-1.868,1.21-1.163,2.551a3.378,3.378,0,0,1-3.567,2.869c-1.646-.245-1.65-1.266-1.192-2.517.686-1.874,1.948-3.445,2.8-5.234a27.011,27.011,0,0,0-3.909,6.928c-.319.743-.324,1.751-1.352,2.05-.874-.714-.646-1.722-.653-2.633-.069-9.234,5.134-12.483,13.469-11.1a43.34,43.34,0,0,1,18.17,7.949,21.818,21.818,0,0,0,5.86,3.878c2.159,1.172,2.612,1.085,3.52-1.052.9-2.119,2.776-3.433,4.076-5.22a7.249,7.249,0,0,0,1.542-4.067,3.56,3.56,0,0,0-1.376-3.187,8.992,8.992,0,0,1-2.776-3.656c-.2-.488-.7-1.161.319-1.432,1.387.545,3,.556,4.112,1.748C3581.318,917.031,3581.318,917.031,3583.991,917.771Z" transform="translate(1.838 4.972)" fill="#becb4b"/>
    <path id="Path_4406" data-name="Path 4406" d="M3555.286,933.877c.08,2.185-1.492,3.78-2.044,5.739-1.3.226-2.092-1.119-3.373-1.1,2.068,1.771,2.144,2.526.572,5.365-.811,1.466-2.051,1.836-4,1.2a3.8,3.8,0,0,1-2.817-4.314,16.43,16.43,0,0,1,3.57-8.461A4.726,4.726,0,0,1,3555.286,933.877Z" transform="translate(2.593 6.225)" fill="#d9d85b"/>
    <path id="Path_4407" data-name="Path 4407" d="M3584.33,896.578c-.173.5,1.7.409.3,1.507-.639.5.907,1.641,1.237,2.6a.319.319,0,0,1-.024.369c-.734.8,1.087,1.852-.283,2.6a5.729,5.729,0,0,0-1.948,2.247c2.468,1.094,2.671,1.912.978,3.995a5.862,5.862,0,0,0-.665,5.985,1.881,1.881,0,0,0,2.676.866c.759-.288,1.718-1.366,2.513.043-3.237,1.57-6.571,2.384-10.151,1.318-.135-.6-1.013-.26-1.126-.888-.284-.352,1.07-1.832-.794-1.119-.568.218-.419-.31-.358-.6.089-.416.7-.634.347-1.245-.81-1.393-.163-1.475.959-.959.521.24.861.232,1.14-.338s.051-.742-.46-1.039c-1.137-.661-1.4-1.013-.046-2.229,1.313-1.178,2.736-3.046,1.971-5.383-.1-.295.065-1.228,1.055-.686.525.288,1.318.186.619-.79-.21-.293-.148-.434.19-.559,2.065-.764,1.206-2.246.9-3.622-.244-1.11-1.515-2.03-.645-3.352C3583.627,895.263,3584.3,895.519,3584.33,896.578Z" transform="translate(5.197 3.441)" fill="#3c3c3c"/>
    <path id="Path_4408" data-name="Path 4408" d="M3588.678,916.4c-.95-.825-1.56.325-2.352.4-.858.084-1.915,1.11-2.521.1-.789-1.309-2.226-2.48-1.386-4.448.636-1.49.806-3.1,2.166-4.324.9-.808-.125-1.9-2.374-2.269,1.082-.907,1.136-2.432,2.611-2.922.68-.227.658-.711.04-1.179-1.447-1.093-.119-1.169.568-1.468.778.064,1.791-.379,2.27.34.6.9,1.737,2.016-.239,2.94-1.088.508-1.305,3.518-.3,4.567.974,1.016,1.176,1.681-.363,2.527a13.149,13.149,0,0,1,5.19.225A5.586,5.586,0,0,1,3588.678,916.4Z" transform="translate(5.634 3.829)" fill="#4f4f4f"/>
    <path id="Path_4409" data-name="Path 4409" d="M3555.375,933.96a7.636,7.636,0,0,0-3.517-2.589c-1.728-.739-3.276.009-4.4,1.514a18.184,18.184,0,0,0-3.34,8.516c-.219,1.556,1.122,2.985,3.041,3.448,1.6.387,2.656-.017,3.258-1.712.628-1.769,1.53-3.434-1.228-4.148-.386-.1-.757-.389-.447-.893a.794.794,0,0,1,1.061-.325c1.193.608,2.353,1.282,3.525,1.929l-1.22,2.8c-.5,1.161-1.008,2.32-1.5,3.483-.221.52.1,1.413-.693,1.507s-.407-1.072-1.037-1.3c-2.178.16-4.582,1.263-6.073-1.453-.668-1.269-.231-2.551-.043-3.831.621-2.973,1.365-5.882,3.289-8.36,2.885-3.715,5.4-3.954,8.925-.762.247.224.531.408.8.611.117.546,1.01.8.614,1.522C3556.109,934.423,3555.723,934.124,3555.375,933.96Z" transform="translate(2.504 6.142)" fill="#98ac43"/>
    <path id="Path_4410" data-name="Path 4410" d="M3578.246,916.741a4.346,4.346,0,0,1,1.412.47c.566.453-.235.234-.286.417l-1.387-.115c-1.222-.905-3-.386-4.1-1.588a2.491,2.491,0,0,1-1.748-1.4,5.569,5.569,0,0,1-.686-1.627c.049-1.86,1.463-3.306,1.56-5.151a9.756,9.756,0,0,0-.008-4.29,1.737,1.737,0,0,1,.288-1.545c.1-.19.333-.606.359-.482.548,2.645.87,5.328,1.552,7.964.193.748-.414,2.021-.73,2.98-.688,2.09.192,2.985,1.934,3.607C3577.028,916.2,3577.632,916.485,3578.246,916.741Z" transform="translate(4.789 3.923)" fill="#191c18"/>
    <path id="Path_4411" data-name="Path 4411" d="M3551.324,895.092c7.162-1.156,13.982.373,20.706,2.646.634.215,1.254.467,1.881.7.847,1.2.62,2.73,1.243,4q.063.744.127,1.489a15,15,0,0,1-.016,4.475c.224,1.946-1.432,3.3-1.607,5.122a4.271,4.271,0,0,1-.607,3.007,1.138,1.138,0,0,1-1.08.475,63.14,63.14,0,0,0-12.105-9.378,44.127,44.127,0,0,0-7.7-3.571,9.857,9.857,0,0,1-4.027-3.247c-.886-1.011-.058-1.75.754-2.3,1.4-.952,3.085-1.369,4.556-2.379C3552.546,896.116,3551.541,896.34,3551.324,895.092Z" transform="translate(2.922 3.394)" fill="#e2dd68"/>
    <path id="Path_4412" data-name="Path 4412" d="M3538.08,878.166c1.478.959,1.257,2.612,1.511,4a53.7,53.7,0,0,0,4.118,13.033c.652,1.4,1.512,2.562,3.215,2.728.177.949-.682,1.028-1.189,1.367-2.016,1.347-4.272,2.263-6.355,3.5a7.317,7.317,0,0,1-2.368.891c-2.564.032-3.48-.559-3.954-2.973-.768-3.925-2.28-7.725-2.018-11.831a1.44,1.44,0,0,0-1.549-1.683c-.669-.032-1.339-.03-2.01-.036a2.741,2.741,0,0,1-1.591-.576l.877-.453a16.9,16.9,0,0,0,5.175-.758c.889-.977,2.274-1.09,3.271-1.9,1.153-.941,2.339-1.819,2.447-3.476a3.458,3.458,0,0,1,.059-1.4A.934.934,0,0,1,3538.08,878.166Z" transform="translate(1.199 2.091)" fill="#e7e071"/>
    <path id="Path_4413" data-name="Path 4413" d="M3572.172,889.981c.286-1.34-.419-2.312-1.213-3.249a3,3,0,0,1,2,1.153c1.866,2.38,1.886,2.365,4.037.48a1.086,1.086,0,0,1,1.134-.273,1.849,1.849,0,0,1,.743.493c.546,1.219.192,2.8,1.678,3.68.549.328.313,1.233.1,1.887-.281.406-.167.719.172,1.05.928.906,2.262,1.667.465,3.133-.674.549.5,1.417.464,2.384a3,3,0,0,0-2.436.628c1.217-1.872-.7-1.728-1.262-2.127-.958-.674-1.84-.977-.38-2.012.894-.633.325-1.643.327-2.412,0-.6-.926-.67-1.657-.679-.795-.01-2.053-.081-1.012-1.494.182-.246.259-.585-.1-.564C3573.655,892.147,3573.3,890.512,3572.172,889.981Z" transform="translate(4.751 2.766)" fill="#1c1d1d"/>
    <path id="Path_4414" data-name="Path 4414" d="M3543.148,871.708a23.841,23.841,0,0,1-4.419-1.653c-.949-.383-1.828.38-2.767.174-1.114-.1-2.107,1.213-3.293.289a1.506,1.506,0,0,0-1.771.985,7.541,7.541,0,0,1-.86,1.355c-.516.69-1.392,1.266-2.058.948-.889-.425-.323-1.629-.031-2.1.7-1.133-.525-2.571.747-3.511.3-.22.434-.993.749-.835,2.125,1.067,4.217-1.6,6.339.017.61.465,1.394.916,2.172.11.1-.108.479-.148.547-.067,1.295,1.556,3.549,1.576,4.878,3.073C3543.862,871.034,3544.211,871.49,3543.148,871.708Z" transform="translate(1.326 1.199)" fill="#171717"/>
    <path id="Path_4415" data-name="Path 4415" d="M3532.444,870.313c1.234.338,2.014-1.107,3.234-.823.615,1.5-.343,2.376-1.293,3.255-2.315,1.3-1.473,3.747-2.033,5.68-.074.258.235.46.4.668a2.994,2.994,0,0,1-.026,3.865c1.564,1.19,2.473.025,3.478-.881.5-.448.505-1.494,1.544-1.29-.57,3.49-3.364,4.381-6.16,5.271-2.178-.744-.425-2.332-.7-3.489-.06-.255.4-.742.183-1.113-1.466-2.548-.21-5.227-.416-7.832C3530.541,872.134,3532.721,871.887,3532.444,870.313Z" transform="translate(1.551 1.404)" fill="#403f40"/>
    <path id="Path_4416" data-name="Path 4416" d="M3583.985,897.281c-.351-.659-1.04-.888-1.61-1.271-.025-.315-.064-.622-.4-.782-.458-.645-1.606-1.124-.515-2.141.451-.231,1.049-.3,1.311.052a1.671,1.671,0,0,0,2.278.38c.68-.37.229-1.316.119-2.016-.184-1-1.026-1.872-.621-2.995a3.427,3.427,0,0,0,.562-1.007c.111-.471.082-1.214.786-1.1.48.079.11.842.441,1.186.021.122.04.245.061.368.511,2.749.123,5.573.726,8.322.252,1.145.243,1.329.85,1.446.144,1.815-.8,1.434-1.606.683A3.655,3.655,0,0,0,3583.985,897.281Z" transform="translate(5.543 2.739)" fill="#848484"/>
    <path id="Path_4417" data-name="Path 4417" d="M3581.676,893.169c-.458.814.663,1.185.538,1.906l-2.12-1.05c-.574-.987-.023-2.555-1.856-2.961-.631-.139.638-1.582-.209-2.333.848-.791,1.5-.3,1.939.424a4.822,4.822,0,0,0,1.814,1.8,2.141,2.141,0,0,1,.421.359C3582.75,892.135,3581.747,892.519,3581.676,893.169Z" transform="translate(5.308 2.892)" fill="#4f4f4e"/>
    <path id="Path_4418" data-name="Path 4418" d="M3572.874,880.052a1.854,1.854,0,0,0-.078-.373c-.246-1.032.191-1.054.93-.63.3.243.52.666,1,.534,1.036-.287,1.113.457,1.469,1.138.934,1.79.821,3.905,1.879,5.638.154.923-.138,1.349-1.119,1-1.182-.8-.978-2.473-1.976-3.447-.654.618.406,1.152-.281,1.861-.942-1.295-.673-2.776-.971-4.093C3572.582,881.584,3572.854,880.752,3572.874,880.052Z" transform="translate(4.89 2.14)" fill="#505050"/>
    <path id="Path_4419" data-name="Path 4419" d="M3573.816,879.549c-.49-.275-.825-.24-.849.422a5.546,5.546,0,0,0-2.325-2.35l-.067-.106c.121-1.782,2.014-1.481,2.85-2.422l-.013.008c1.131.159.787,1,.657,1.612a2.782,2.782,0,0,0,.024,2.084A.831.831,0,0,1,3573.816,879.549Z" transform="translate(4.721 1.849)" fill="#272727"/>
    <path id="Path_4420" data-name="Path 4420" d="M3576.666,886.858c.374-.164,1.249.055.656-.853-.125-.413-.108-.793.4-.88.575-.1.751.36.934.775.1.277.192.563.315.835.438,1.151-.123,1.639-1.194,1.783l-1.206-.024A1.375,1.375,0,0,1,3576.666,886.858Z" transform="translate(5.176 2.638)" fill="#464545"/>
    <path id="Path_4421" data-name="Path 4421" d="M3572.953,879.96l.85,1.625c-.22.14-.448.269-.658.425-.339.252-.6.872-1.117.422-.489-.422-.325-.941.062-1.4C3572.385,880.684,3572.666,880.318,3572.953,879.96Z" transform="translate(4.811 2.232)" fill="#272727"/>
    <path id="Path_4422" data-name="Path 4422" d="M3570.845,878.616c.764.4.6,1.2,1.261,1.4C3570.98,879.99,3570.98,879.99,3570.845,878.616Z" transform="translate(4.742 2.126)" fill="#272727"/>
    <path id="Path_4423" data-name="Path 4423" d="M3526.4,975.756c-1.152-.876-2.472-1.563-3.237-2.875.549-.744.911.233,1.564.121-1.1-2.245-2.12-4.476-3.257-6.65a17.008,17.008,0,0,1-1.987-9.132c.189-3.012,1-3.409,3.77-2.383a32.422,32.422,0,0,0,8.157,2.118c1.422.134,2.542-1.315,2.684-3.185.25-3.285-.57-6.406-1.4-9.518-.522-1.945-1.231-3.84-1.777-5.778-.313-1.113-.859-1.631-2.027-1.219-.51-.971.11-1.812.333-2.688a14.862,14.862,0,0,0,.687-3.939,2.146,2.146,0,0,0-1.541-2.3c-.632-.211-1.692.07-1.736-.976a3.636,3.636,0,0,1,1.251-2.651,1.509,1.509,0,0,1,1.316-.337c.925.255,1.982.178,2.664,1.047a3.354,3.354,0,0,1-.011,3.789,1.686,1.686,0,0,0-.207,1.729c1.7,3.143,1.74,6.726,2.726,10.054.109.713.74,1.1,1.063,1.683a7.124,7.124,0,0,0,.614,2.736c1.393,4.082,2.831,8.152,2.635,12.579-.146,3.288-1.8,4.926-5.089,4.923-1.5,0-2.932-.44-4.411-.548-3.219-.233-4.927,1.671-4.472,4.881a13.52,13.52,0,0,0,2.568,5.651,8.531,8.531,0,0,1,.621,1.041c.368.759,1.27,1.588.583,2.369C3527.76,977.12,3527.2,975.618,3526.4,975.756Z" transform="translate(0.691 5.731)" fill="#9ebb33"/>
    <path id="Path_4424" data-name="Path 4424" d="M3528.151,939.96a2.02,2.02,0,0,1,1.546,1.581,34.421,34.421,0,0,1,1.317,7.888c-.027,2.408-1.562,3.359-3.873,2.434-2.558-1.025-4.209-3.068-5.732-5.189a43.034,43.034,0,0,1-3.971-7.43c-.6-1.327.905-1.832.958-2.873.569.316.491,1.095,1.084,1.517.755-.428.686-1.241.852-1.89a62.653,62.653,0,0,1,4.525-13.107,2.758,2.758,0,0,0-.027-2.49,31.032,31.032,0,0,0,4.135-3.367,9.094,9.094,0,0,1,5.048-1.811,27.541,27.541,0,0,1,12.3,1.028,11.072,11.072,0,0,0,1.186.206,3.822,3.822,0,0,1,.589.154c1.454.536,2.872,1.18,4.37,1.606a14.654,14.654,0,0,1,1.379.52c.911.584,1.9,1.035,2.823,1.586.573.342,1.471.585,1.006,1.616-.792.429-1.42-.067-2.085-.366a45.526,45.526,0,0,0-10.471-3.7c-5.964-1.08-11.581-.817-16.181,3.816-2.416,2.6-3.436,5.911-4.6,9.135-.366,1.013.174,1.425,1.169,1.1.976-.32,1.965-.47,2.467.605.605,1.294-.014,2.51-.651,3.638a1.732,1.732,0,0,1-2.3.692c-.257-.082-.516-.161-.775-.236-.658-.191-1.358-.456-1.728.423a1.759,1.759,0,0,0,.606,2.309C3524.7,940.612,3526.435,940.119,3528.151,939.96Z" transform="translate(0.522 4.99)" fill="#8aa823"/>
    <path id="Path_4425" data-name="Path 4425" d="M3548.081,917.447c-2.7-.054-5.191-1.267-7.9-1.371a25.173,25.173,0,0,0-9.632,1.1,4.252,4.252,0,0,0-2.082,1.53,4.968,4.968,0,0,1-3.478,2.344c-.3.511-.855.611-1.333.838-1.319.629-2.4,1.346-1.382,3.058a1.59,1.59,0,0,1-.08,1.371,67.631,67.631,0,0,0-2.373,7.266c-.114.446-.271.921-.862.979-1.475.29-1.889-.8-2.009-1.815a31.675,31.675,0,0,1,.992-12.853c1.28-4.4,4.121-7.375,7.1-10.423.279-.286.507-.622.758-.935a.609.609,0,0,1,.87.016c.091,1.017-.744,1.522-1.242,2.206a9.94,9.94,0,0,0-1.684,4.065c-.25,1.322.373,1.825,1.6,1.251a21.783,21.783,0,0,1,5.179-1.589c5.027-.976,9.888.23,14.766,1.077C3546.374,915.752,3547.685,916.037,3548.081,917.447Z" transform="translate(0.475 4.471)" fill="#7d9a1e"/>
    <path id="Path_4426" data-name="Path 4426" d="M3525.938,909.577h-.8q.188-.615.375-1.23c2.1-2.5,1.313-5.413,1.122-8.225a31.541,31.541,0,0,0-.521-3.552c-.111-.609.039-1.181.542-1.364.6-.219.954.377,1.18.854.6,1.257.8,2.691,1.732,3.8.725,1.4,1.108,2.907,2.567,3.97,1.007.735,1.714,1.251,2.985.887a4.7,4.7,0,0,1,3.154.334c6.373,2.729,13.083,4.48,19.644,6.651,3.2,1.057,6.01,3.034,9.366,3.631,2.11.99,4.431,1.4,6.548,2.367-.6,1.408-1.786.919-2.753.748-3.651-.645-6.994-2.254-10.461-3.473-2.75-1.317-5.731-1.962-8.6-2.937-1.671-1.05-3.617-1.354-5.451-1.921-2.748-.849-5.582-1.429-8.25-2.529-2.723-1.123-5.3-.681-7.961.328C3528.887,908.471,3527.675,909.749,3525.938,909.577Z" transform="translate(1.14 3.43)" fill="#7f9c20"/>
    <path id="Path_4427" data-name="Path 4427" d="M3527.836,939.5a4.912,4.912,0,0,1-6.081-.682c-1-1.046-.132-2.2.15-3.207.3-1.051,1.156-.193,1.686-.046,2.727.755,3.769.088,3.864-2.6.05-1.387-.871-1.8-1.781-1.146a1.785,1.785,0,0,1-2.365.068c-.729-.585,0-1.395.24-2.007a45.54,45.54,0,0,1,3.315-7.359c.381-.617.6-1.384,1.414-1.63,1.07-.026,2.228-.353,2.935.86a18.5,18.5,0,0,1-.913,2.562c-.15.629-.533,1.069-1.288.7-2.027-.136-1.393,1.907-2.468,2.71,3.733.423,4.419,1.33,3.646,4.869-.365,1.674-.961,3.3-1.452,4.944Q3528.289,938.515,3527.836,939.5Z" transform="translate(0.836 5.454)" fill="#1e2212"/>
    <path id="Path_4428" data-name="Path 4428" d="M3518.831,933.637c.976-2.967,1.7-6.018,2.952-8.893.1-.236.254-.545.183-.75-.869-2.5-.716-2.823,1.916-3.688a7.154,7.154,0,0,1,.978-.181c1.083.281,1.344.752.755,1.852a62.175,62.175,0,0,0-5.031,14.381c-.178.708.254,2.1-1.119,1.962-1.351-.131-1.156-1.371-1.149-2.357Q3518.573,934.8,3518.831,933.637Z" transform="translate(0.601 5.398)" fill="#11130d"/>
    <path id="Path_4429" data-name="Path 4429" d="M3525.889,885.967l1.608.023a3.287,3.287,0,0,1,1.646,2.633,62.359,62.359,0,0,0,2.878,11.3c.994,3.065,1.955,3.632,5.2,2.682l2.024-.812c.743-.3,1.484-.6,2.234-.887,2.159-.814,2.966-.56,4.136,1.409a3.787,3.787,0,0,0,1.764,1.569,120.01,120.01,0,0,0,11.391,4.623,20.115,20.115,0,0,1,5.2,2.653c3.171,2.259,6.821,3.788,9.733,6.434l.765-.427a.705.705,0,0,1,.125.878,1.017,1.017,0,0,1-.578.245,10.077,10.077,0,0,1-4.5-1.227,124.709,124.709,0,0,0-22.437-9.487,18.486,18.486,0,0,1-6.085-3.1,3.227,3.227,0,0,0-3.027-.608,20.929,20.929,0,0,1-5.568.72c-.477-.248-1.024-.447-.855-1.167C3529.055,897.8,3528.026,891.7,3525.889,885.967Z" transform="translate(1.199 2.706)" fill="#c0cc4c"/>
    <path id="Path_4430" data-name="Path 4430" d="M3531.282,902.348l.813.812c1.1.6,2.251.057,3.354.049,4.375-.033,7.947,2.4,11.892,3.646,4.167,1.314,8.319,2.725,12.382,4.336a41.032,41.032,0,0,1,7.282,3.824c-.023.1-.046.209-.068.314-2.677-.019-4.712-1.8-7.108-2.588-4.76-1.571-9.495-3.218-14.286-4.687a79.331,79.331,0,0,1-7.508-2.773,9.6,9.6,0,0,0-2.729-.535c-1.039-.125-2.162,1.333-2.767.454-1.23-1.79-3.489-3.063-3.294-5.685C3530.485,900.057,3529.978,901.853,3531.282,902.348Z" transform="translate(1.463 3.774)" fill="#9cb831"/>
    <path id="Path_4431" data-name="Path 4431" d="M3578.491,887.091c-.115-.359.113-.884-.348-1.059s-.486.3-.6.587c-.735-2.192-1.469-4.383-2.241-6.69-.693.613-1.6,1.23-1.721-.556l.023-.8c.217-.342.308-1.229.812-.769.952.866,2.071-1.632,2.686.2.461,1.371,1.9,1,2.608,1.748.875.927,2.119,1.087,3.081,1.784a.919.919,0,0,1,.382.669l1.289,1.291c.156,1,.685,2.04-.365,2.885-1.283-.06-1.683-1.182-2.351-1.973a12.614,12.614,0,0,0-1.491-1.618c-.2-.175-.381-.381-.6-.542-.436-.325-.928-.715-1.425-.223-.384.379-.141.887.049,1.32a7.7,7.7,0,0,1,.894,2.013C3579.262,886.034,3579.557,886.852,3578.491,887.091Z" transform="translate(4.958 2.024)" fill="#848383"/>
    <path id="Path_4432" data-name="Path 4432" d="M3583.222,882.434c-2.114-.41-3.386-2.587-5.816-2.557-1.173.015.7-.695.13-.835-.753-.182-.725-1.163-1.247-1.156-.769.01-.625,1.1-1.245,1.477-.382-.351-.306-1.977-1.393-.563-.713-.135-.852-.383-.573-1.162.27-.749,1.16-1.614.146-2.489.051-.642.356-.763.955-.564,1.2.4,2.412.728,3.636,1.092-.3,1.3-1.311-.092-1.785.494a43.485,43.485,0,0,1,7.1,5.093C3583.47,881.585,3584.146,881.976,3583.222,882.434Z" transform="translate(4.908 1.802)" fill="#505050"/>
    <path id="Path_4433" data-name="Path 4433" d="M3583.365,885.8c.491-.871-.437-1.911.327-2.749.915,1.552,2.8,2.6,2.465,4.8l-.566-.869c-.834.3.772,1.8-.926,1.631A2.91,2.91,0,0,1,3583.365,885.8Z" transform="translate(5.726 2.476)" fill="#626161"/>
    <path id="Path_4434" data-name="Path 4434" d="M3573.442,875.093c-.519,1.315-2.329,1.11-2.851,2.423-.863-1.673.9-1.589,1.547-2.206C3572.4,875.058,3573,875.154,3573.442,875.093Z" transform="translate(4.704 1.849)" fill="#505050"/>
    <path id="Path_4435" data-name="Path 4435" d="M3540.193,982.431a27.543,27.543,0,0,1-6.844-2.571,4.824,4.824,0,0,0-1.436-2.822,8.274,8.274,0,0,1-2.2-3.821c-.73-2.688.433-4.576,3.169-5.032a23.341,23.341,0,0,1,4.225-.415c4.386.073,6.243-2.034,5.691-6.505a52.785,52.785,0,0,0-2.31-9.637c-1.113-3.471-2.357-6.9-3.526-10.349-.5-1.464-1.841-2.561-1.764-4.247a4.3,4.3,0,0,1,.5-2.212c.615-1.366,1.444-2.218,3.02-1.235,1.351,1.823.63,4.05,1.153,6.042a13.611,13.611,0,0,0,.389,2.482c.029-1.376-.67-2.735.324-3.93,1.99.476,1.578,2.556,2.5,3.893l.69-1.45a11.131,11.131,0,0,0,.43,3.656c3.374,7.5,5.26,15.542,8.468,23.1a13.454,13.454,0,0,1,.75,5.174,3.524,3.524,0,0,1-1.958,3.3,11.047,11.047,0,0,1-5.417,1.4c-2.422.037-3.222.783-3.732,3.121-.218,1-.346,2.066-1.768,1.991A.586.586,0,0,0,3540.193,982.431Z" transform="translate(1.484 6.425)" fill="#c2cd4d"/>
    <path id="Path_4436" data-name="Path 4436" d="M3539.749,981.548a2.2,2.2,0,0,0,1.27-2.1c.115-2.34,1.473-3.592,3.926-3.564a11.075,11.075,0,0,0,5.065-1.055c1.8-.864,2.139-2.208,2.092-4.051-.081-3.132-1.525-5.8-2.517-8.631-1.8-5.122-3.585-10.25-5.231-15.422-.339-1.066-1.588-1.911-.947-3.26,1.4,2.261,3.677,1.479,5.684,1.628-.557.707-1.433.146-2.188.584,2.451,2.678,2.986,6.236,4.15,9.447a138.507,138.507,0,0,0,6.435,15.144c2.382,4.728,1.024,7.218-3.372,9.606a39.551,39.551,0,0,1-6.74,2.511,7.677,7.677,0,0,1-3.549-.254c-.655-.16-1.342-.5-1.605.519Z" transform="translate(2.291 7.237)" fill="#d3d554"/>
    <path id="Path_4437" data-name="Path 4437" d="M3539.974,938.64a16.487,16.487,0,0,0,.352,4.176c.086.434.409,1.19-.342,1.333-.675.127-.823-.52-.886-1.078-.249-2.248-.518-4.5-.736-6.748a4.005,4.005,0,0,0-.422-2.122c-.747-.53-.9-1.065-.014-1.609,1.9.193,2.632-1.382,3.708-2.439,1.8-1.131,3.225-3.052,5.677-2.83a50.341,50.341,0,0,1-5.352,4.165C3539.222,933.434,3539.332,935.9,3539.974,938.64Z" transform="translate(2.1 5.964)" fill="#71812f"/>
    <path id="Path_4438" data-name="Path 4438" d="M3533.27,941.707c-1.061-1.905-.9-4.123-1.563-6.133-.435-1.309-.406-2.754-1.462-3.872a1.522,1.522,0,0,1-.037-1.892c1.245-1.194.933-2.5.626-3.874,1.077-.977,1.576-2.433,2.746-3.339,6.375-5.209,13.122-3.375,19.837-.953a68.143,68.143,0,0,1,8.013,3.786c.342.176.673.372,1,.573.785.561,1.585,1.106,2.4,1.624a6.173,6.173,0,0,1,.954.847,1.967,1.967,0,0,1,.422.625.565.565,0,0,1-.123.464,75.92,75.92,0,0,0-9.157-4.986,30.715,30.715,0,0,0-12.6-3.144c-5.991-.022-8.829,3.207-9.392,8.82-.149,1.486-.434,3.083.28,4.562a.762.762,0,0,1,.31.475C3535.024,937.516,3534.615,939.774,3533.27,941.707Z" transform="translate(1.515 5.329)" fill="#acc23f"/>
    <path id="Path_4439" data-name="Path 4439" d="M3572.683,913.445l1.414,1.532c-.149,1.922,1.192,3.127,2.358,4.222a5.741,5.741,0,0,1,.728,7.824c-1.675,2.222-4.01,3.907-4.97,6.742-.538,1.589-1.859,1.45-3.521-.093.063-.087.126-.175.187-.264a1.785,1.785,0,0,0,.782-1.542,16.785,16.785,0,0,1,1.016-6.129c.83-2.685.637-5.447.75-8.2C3571.486,916.116,3571.035,914.426,3572.683,913.445Z" transform="translate(4.572 4.871)" fill="#abc23e"/>
    <path id="Path_4440" data-name="Path 4440" d="M3534.93,934.84q-.052-.217-.1-.434a35.81,35.81,0,0,1,4.238-9.048c.3-.508.8-1.346,1.569-.7.724.606-.164,1.054-.441,1.489a32.083,32.083,0,0,0-2.731,4.936c-.307.739-.743,1.613.665,1.735a1.344,1.344,0,0,0,.013,1.609,1.641,1.641,0,0,0-2.42,1.217A1.092,1.092,0,0,1,3534.93,934.84Z" transform="translate(1.903 5.737)" fill="#5e6c27"/>
    <path id="Path_4441" data-name="Path 4441" d="M3563.442,928.837c0-.134,0-.268,0-.4a9.656,9.656,0,0,1,5.678,4.036l-.015.017A10.991,10.991,0,0,1,3563.442,928.837Z" transform="translate(4.159 6.053)" fill="#abc23e"/>
    <path id="Path_4442" data-name="Path 4442" d="M3569.151,933.756l-5.678-4.036-.4-.45c-.055-.394.188-.53.512-.594a1.424,1.424,0,0,1,.577.137c1.3.775,2.338,1.963,3.949,2.635a21.057,21.057,0,0,1,3.44-15.568c0-.261-.006-.521-.01-.782q.456-1.473.914-2.946.336.7.675,1.395a3.293,3.293,0,0,0-.709,2.24c.467,5.072-.686,9.943-1.755,14.826a1.958,1.958,0,0,0,.012,1.345C3571.411,933.583,3570.428,933.806,3569.151,933.756Z" transform="translate(4.128 4.77)" fill="#93b22a"/>
    <path id="Path_4443" data-name="Path 4443" d="M3573.255,907.73l.016-4.474A5.945,5.945,0,0,1,3573.255,907.73Z" transform="translate(4.932 4.068)" fill="#2b2b2b"/>
    <path id="Path_4444" data-name="Path 4444" d="M3572.726,916.872a83.13,83.13,0,0,1-9.45-5.717c-4.234-2.879-9.328-3.818-13.823-6.082-2.075-1.045-4.939-1.084-5.734-4.177-.288-1.122-1.766-.657-2.724-.5-.918.145-1.744.723-2.723.681,2.434-1.706,5.343-2.6,7.676-4.476a32.353,32.353,0,0,1,6.124-1.533c.935,1.23,2.219.286,3.66.384a14.906,14.906,0,0,1-4.505,2.754,18.643,18.643,0,0,0-1.919,1.06c-.366.229-.655.844-.351,1.005,1.558.832,2.073,2.748,4.026,3.3a37.163,37.163,0,0,1,8.03,3.631,51.343,51.343,0,0,1,8.806,6.507C3570.9,914.674,3572.311,915.3,3572.726,916.872Z" transform="translate(2.175 3.423)" fill="#d7d658"/>
    <path id="Path_4445" data-name="Path 4445" d="M3533.791,872.313a3.142,3.142,0,0,0,1.616-2.823c.949.059,1.949-.274,2.826.36-1.513.255-1.067,1.559-1.078,2.382-.031,2.205.184,4.412.3,6.621a1.785,1.785,0,0,0-.138.367c-2.6-.328-2.679-.4-3.262-2.941A19.369,19.369,0,0,1,3533.791,872.313Z" transform="translate(1.822 1.404)" fill="#686868"/>
    <path id="Path_4446" data-name="Path 4446" d="M3537.107,902.6c-2.757,1.786-4.736,1.12-5.568-1.875-1.119-4.032-2.716-7.938-3.03-12.185a8.446,8.446,0,0,0-1.13-2.552c.27,0,.54-.005.811,0,3.358.013,3.287.013,3.263,3.309-.026,3.531,1.279,6.834,1.967,10.244C3534,902.425,3534.175,902.59,3537.107,902.6Z" transform="translate(1.316 2.707)" fill="#d1d454"/>
    <path id="Path_4447" data-name="Path 4447" d="M3533.977,872.1c.793.865.549,1.938.524,2.933a3.714,3.714,0,0,0,3,3.972q.079.785.159,1.568c-.148.132-.375.236-.43.4-.439,1.315-1.6,1.932-2.562,2.754-1.434,1.223-1.8-1.3-3.041-.666,1.637-1.7,1.67-2.519.223-4.371-.16-.2-.464-.558-.412-.629C3532.763,876.276,3531.267,873.285,3533.977,872.1Z" transform="translate(1.636 1.613)" fill="#525252"/>
    <path id="Path_4448" data-name="Path 4448" d="M3577.674,888.484c.2-.564,1.689-.466.82-1.585.3-.563.271-1.426,1.251-1.363a1.035,1.035,0,0,1,.341.743,2.444,2.444,0,0,0,.822,2.34c.424.986,1.853,1.686.878,3.069-.944-.381-1.836-.781-2.121-1.93-.2-.813-.883-.913-1.608-.808C3577.93,888.8,3577.8,888.64,3577.674,888.484Z" transform="translate(5.28 2.672)" fill="#787878"/>
    <path id="Path_4449" data-name="Path 4449" d="M3581.72,891.952c.463-1.393-1.474-1.906-1.185-3.235a.757.757,0,0,1,.89-.19,3.779,3.779,0,0,1-1.727-1.839l-.07-.719c-1.581-2.494-1.5-3.076.492-3.779,1.779.663,1.862,3,3.625,3.678l1.3,2.813c-.32,1.214.968,2.08.71,3.28-.371,2.087-.572,2.187-2.214.919a4.717,4.717,0,0,0-1.554-.811A.932.932,0,0,1,3581.72,891.952Z" transform="translate(5.347 2.408)" fill="#d1d1d1"/>
    <path id="Path_4450" data-name="Path 4450" d="M3581.8,891.367a1.115,1.115,0,0,1,1.714.284c1.042,1.634,1.561.74,2.053-.392.478,1.808.468,1.776-1.3,2.313-.592.18.375.858-.372,1.209-.58-.862-.9-2.243-2.448-1.831-.2-.306-1.231-.655.024-.894C3581.98,891.961,3581.832,891.66,3581.8,891.367Z" transform="translate(5.532 3.11)" fill="#a9a9a9"/>
    <path id="Path_4451" data-name="Path 4451" d="M3580.235,882.3c-1.143.658-1.636,1.438-.642,2.653.2.249.108.743.15,1.125-.684.113-.656.942-1.2,1.194-.109-.152-.218-.3-.326-.455a1.815,1.815,0,0,0,.029-2.243,10.671,10.671,0,0,1-.824-1.379c-.3-.738-.7-1.631.111-2.214.755-.544,1.5.147,2.172.478C3579.958,881.585,3580.063,882.012,3580.235,882.3Z" transform="translate(5.232 2.297)" fill="#b2b2b2"/>
    <path id="Path_4452" data-name="Path 4452" d="M3536.177,936.68c.584,2.466,1.959,4.615,2.761,7.012,1.872,5.591,3.872,11.136,4.874,16.969a8.858,8.858,0,0,1-.641,4.932,4.608,4.608,0,0,1-5.034,2.546c-1.673-.367-3.2.142-4.755.284-2.569.233-3.577,2.274-2.641,4.743a10.266,10.266,0,0,0,2.693,3.97c.694.641,1.622,1.429.37,2.447a26.751,26.751,0,0,1-7.74-4.8c.779-.5,1.133.473,1.913.511-.111-1.327-1-2.24-1.618-3.247a16.194,16.194,0,0,1-2.535-5.635c-.533-2.918,1.1-6.322,5.382-5.539a18.615,18.615,0,0,0,4.989.542,3.855,3.855,0,0,0,3.624-3.846c.274-3.5-.655-6.79-1.634-10.072-.4-1.349-.957-2.652-1.442-3.975-.253-.685-.6-1.382.232-1.938C3534.5,939.735,3534.643,938.037,3536.177,936.68Z" transform="translate(1.028 6.703)" fill="#acc340"/>
    <path id="Path_4453" data-name="Path 4453" d="M3533.773,922.906c-1.229.672-.841,2.938-2.824,2.864l-2.5-.8a.922.922,0,0,0,.874-1.093,2.809,2.809,0,0,1,1.206-2.162,1.244,1.244,0,0,1,1.189-.341C3532.525,921.718,3533.785,921.463,3533.773,922.906Z" transform="translate(1.401 5.495)" fill="#363e18"/>
    <path id="Path_4454" data-name="Path 4454" d="M3535.445,936.885a21.119,21.119,0,0,0-1.2,4.905c-1.034.194-1.32-.34-1.216-1.253q1.025-3.23,2.048-6.459a1.37,1.37,0,0,1,.788.806C3535.38,935.48,3535.522,936.205,3535.445,936.885Z" transform="translate(1.76 6.498)" fill="#434d1c"/>
    <path id="Path_4455" data-name="Path 4455" d="M3526.142,908.749c1-.537,2-1.063,2.992-1.615,4.02-2.24,7.965-1.644,12.076-.06,3.266,1.257,6.734,1.982,10.1,2.981a5.151,5.151,0,0,1,1.166.724,1.991,1.991,0,0,1-2.094.272c-4.677-1.282-9.35-2.564-14.12-3.487a7.826,7.826,0,0,0-6.324,1.353c-1.449,1.038-1.223,2.16.428,2.818a5.459,5.459,0,0,0,1.37.358c5.257.615,10.285,2.2,15.358,3.6,1.731.916,3.619,1.475,5.381,2.318.761.365,1.75.522,1.679,1.71a.657.657,0,0,1-.87-.02c-.441-.027-.923.065-1.216-.408a27.673,27.673,0,0,0-4.45-1.629h0c-2.448-1.973-5.526-1.832-8.364-2.345a24.54,24.54,0,0,0-11.13.319,9.45,9.45,0,0,0-2.974,1.181c-.589.411-1.328.952-1.976.366a2.273,2.273,0,0,1-.492-2.411A13.074,13.074,0,0,1,3526.142,908.749Z" transform="translate(0.936 4.258)" fill="#708c1d"/>
    <path id="Path_4456" data-name="Path 4456" d="M3531.762,922.167l-1.178-.08c-.835-.624-2.021-.1-2.814-.863,7.218-6.876,15.217-4.805,23.26-2,2.009.7,3.783,1.988,5.9,2.443,2.314.64,4.04,2.263,5.944,3.585.427.3.82.717.556,1.352a.65.65,0,0,1-.823-.078.851.851,0,0,1-.811-.408c-6.205-3.857-12.834-6.583-20.189-7.074a11.982,11.982,0,0,0-7.332,1.885A6.1,6.1,0,0,1,3531.762,922.167Z" transform="translate(1.347 5.12)" fill="#98b62e"/>
    <path id="Path_4457" data-name="Path 4457" d="M3561.592,926.359a20.315,20.315,0,0,0-4.75-3.588c-.6-.4-1.4-.511-1.745-1.265-.939-1.536-3.1-1.318-4.055-2.832l.822-.015c2.594.081,4.383,1.885,6.438,3.076,2.363,1.369,4.04,3.537,5.833,5.546a.982.982,0,0,1,.3,1.1q-.207.189-.415.378l-.819-.776C3562.615,927.488,3561.887,927.136,3561.592,926.359Z" transform="translate(3.181 5.282)" fill="#7d9a1e"/>
    <path id="Path_4458" data-name="Path 4458" d="M3545.789,916.784a6.829,6.829,0,0,1,4.45,1.629A11.019,11.019,0,0,1,3545.789,916.784Z" transform="translate(2.767 5.135)" fill="#7d9a1e"/>
    <path id="Path_4459" data-name="Path 4459" d="M3573.713,916.177a32.59,32.59,0,0,1-1.711,4.474,17.337,17.337,0,0,0-.688,12.328,17.087,17.087,0,0,1-5.3-3.721c-2.519-3.967-6.212-6.588-10.163-8.94a73.774,73.774,0,0,0-9.427-4.467,35.833,35.833,0,0,1-8.383-3.349,9.4,9.4,0,0,1-1.644-1.165c-1.273-1.215-1.054-1.984.641-2.529a9.616,9.616,0,0,1,5.579-.011c3.8,1.063,7.661,1.85,11.435,2.989a.976.976,0,0,1,.734.612c-.581.929-1.4.518-2.161.374-2.122-.4-4.142-1.234-6.306-1.464a5,5,0,0,0-1.808-.046c-.393.1-.819.209-.931.667s.232.751.555.994a7.957,7.957,0,0,0,1.973,1.024,66.527,66.527,0,0,1,19.014,10.977,12.19,12.19,0,0,0,1.308.958c1.345.838,1.846.676,2.344-.871.414-1.284.858-2.561,1.2-3.868.193-1.072,1.066-1.807,1.384-2.806-3.586.036-6.544-1.981-9.827-2.921a3.005,3.005,0,0,1-.544-.244,9.039,9.039,0,0,0-2.214-.892c-.415-.18-1.146-.236-.7-1.036a3.162,3.162,0,0,1,1.891.155c3.364,1.191,6.606,2.741,10.137,3.442a3.7,3.7,0,0,0,2.9-.153c-.038-.307.25-.31.408-.434C3573.506,916.227,3573.609,916.2,3573.713,916.177Z" transform="translate(1.962 4.473)" fill="#516b1f"/>
    <path id="Path_4460" data-name="Path 4460" d="M3555.314,912.714c-3.164-1.522-6.627-2-9.979-2.877a14.113,14.113,0,0,0-7.415-.391c-.5.135-1.234-.072-1.368.569-.116.563.5.927.927,1.22a36.426,36.426,0,0,0,8.5,4.119,12.36,12.36,0,0,1,1.24.6c-.138.171-.281.182-.428.011-2.637-.229-5.055-1.326-7.6-1.916-3-.7-6.05-1.158-9.073-1.748-1.021-.2-2.019-.583-2.292-1.71-.3-1.23.713-1.948,1.518-2.392,1.934-1.065,3.907-1.85,6.322-1.33,4.979,1.073,9.917,2.262,14.791,3.74a6.676,6.676,0,0,0,1.61.086,71.486,71.486,0,0,1,8.507,2.835l-2.032.007A2.381,2.381,0,0,1,3555.314,912.714Z" transform="translate(1.347 4.34)" fill="#5b761f"/>
    <path id="Path_4461" data-name="Path 4461" d="M3571.148,915.816l-.408.434a14.335,14.335,0,0,1-6.558-2.057l.017-.026c.939-.625,1.621.262,2.427.413A8.4,8.4,0,0,0,3571.148,915.816Z" transform="translate(4.217 4.911)" fill="#9cb831"/>
    <path id="Path_4462" data-name="Path 4462" d="M3569.172,915.534l-2.427-.413c-5.669-3.28-11.866-5.255-18.03-7.322a47.887,47.887,0,0,1-7.161-2.714c-2.557-1.349-5.295-1.247-7.97-1.7-.577-.1-1.233.162-1.7-.407,1.982-.323,3.987-.547,5.937-1.01a2.568,2.568,0,0,1,2.469.394c3.014,2.723,6.859,3.74,10.537,4.914A86.014,86.014,0,0,1,3569.172,915.534Z" transform="translate(1.672 3.956)" fill="#acc23f"/>
    <path id="Path_4463" data-name="Path 4463" d="M3531.47,922.025c3.862-3.658,8.492-4.089,13.459-3.279,5.607.915,10.526,3.534,15.48,6.085a2.38,2.38,0,0,1,1.1,1.146c-2.484-1.137-4.937-2.352-7.461-3.393-4.875-2.011-9.863-3.4-15.222-2.291-2.055.425-3.441,2.053-5.287,2.846C3533.309,921.912,3532,922.686,3531.47,922.025Z" transform="translate(1.639 5.262)" fill="#abc23e"/>
    <path id="Path_4464" data-name="Path 4464" d="M3560.881,925.8a2.036,2.036,0,1,1-.818.005Z" transform="translate(3.892 5.845)" fill="#abc23e"/>
    <path id="Path_4465" data-name="Path 4465" d="M3545.4,915.29l.428-.011a44.466,44.466,0,0,1,17.391,10.051,5.988,5.988,0,0,1,2.021,3.384q-.181-.037-.363-.068a31.041,31.041,0,0,0-12.568-9.722c-1.312-1.463-3.271-1.646-4.9-2.487C3546.724,916.084,3545.779,916.179,3545.4,915.29Z" transform="translate(2.737 5.016)" fill="#5c771e"/>
    <path id="Path_4466" data-name="Path 4466" d="M3579.635,886.359c.882.028,1.133.855,1.51,1.373.762,1.048-.361.507-.673.656C3579.33,888.067,3579.027,887.4,3579.635,886.359Z" transform="translate(5.411 2.737)" fill="#b2b2b2"/>
    <path id="Path_4467" data-name="Path 4467" d="M3554.178,912.417a10.893,10.893,0,0,0,3.229.825c.887.946,2.639.117,3.268,1.591a1.058,1.058,0,0,1-1.118.22c-2.6-.86-5.407-.817-7.987-1.77-1.454-.44-2.893-1.066-4.433-.532-.127.7.347.773.695.9a74.338,74.338,0,0,1,10.182,4.91,3.22,3.22,0,0,0,2.5.415c2.713-.694,3.877-.238,5.473,2.02.313.441.55.927.841,1.379.729,1.135,1.231.734,1.629-.261.373-.564.576-1.346,1.511-1.2-.422,1.479-.827,2.964-1.269,4.438-.535,1.791-1.411,2.081-2.908.9a83.534,83.534,0,0,0-12.759-8.635c-2.3-1.207-4.757-2.121-7.14-3.174-.8-.352-1.584-.734-2.382-1.083a1.823,1.823,0,0,1-1.316-1.83c.112-.917,1.154-.932,1.789-1.012a12.556,12.556,0,0,1,4.523.632A28.049,28.049,0,0,0,3554.178,912.417Z" transform="translate(2.483 4.638)" fill="#39501c"/>
    <path id="Path_4468" data-name="Path 4468" d="M3568.483,922.039c.04.8-.159,1.6-1.009,1.749-.779.133-1.13-.634-1.377-1.26a7.424,7.424,0,0,0-1.71-2.478c-.979-.988-2.13-1.7-3.591-.86a2.988,2.988,0,0,1-3.232-.2,51.5,51.5,0,0,0-10.733-5.068c-.577-.175-1.026-.426-.972-1.078s.542-.9,1.135-.922a6.814,6.814,0,0,1,4.053.8c-.269.409-.846.38-1.332.96,2.02.8,3.766,1.942,5.79,2.413a5.489,5.489,0,0,0,5.262-1.335c1.8.092,3.3,1.067,4.888,1.725a7.686,7.686,0,0,0,4.8.745c.647-.146.666-.061.826.715a10.97,10.97,0,0,1-2.115.473c-.661.022-1.52-.431-1.841.6a2.076,2.076,0,0,0,.718,2.631A2.091,2.091,0,0,1,3568.483,922.039Z" transform="translate(2.772 4.75)" fill="#2e4219"/>
    <path id="Path_4469" data-name="Path 4469" d="M3560.557,914.7c-.025,1.761-1.641,1.711-2.608,1.905-3.435.689-6.11-1.563-9.047-2.757-.665-.27-.347-.86.149-1.018a7.973,7.973,0,0,1,1.785-.168c3.112.671,6.3.979,9.338,2C3560.3,914.674,3560.43,914.685,3560.557,914.7Z" transform="translate(2.983 4.809)" fill="#212e15"/>
    <path id="Path_4470" data-name="Path 4470" d="M3566.968,921.618c-1.819.3-2-1.126-1.829-2.182.123-.739-.459-2.945,1.8-1.931.966.435,1.892-.8,2.823.016-.476.986-1.366,1.742-1.6,2.865Q3567.565,921,3566.968,921.618Z" transform="translate(4.288 5.17)" fill="#212f16"/>
  </g>
</svg>
