<svg xmlns="http://www.w3.org/2000/svg" width="121.897" height="108.935" viewBox="0 0 121.897 108.935">
  <g id="Group_18" data-name="Group 18" transform="translate(-5786.653 -778.96)">
    <path id="Path_2638" data-name="Path 2638" d="M5885.594,779.176a28.183,28.183,0,0,1,15.528,5.707,15.8,15.8,0,0,0,2.562,1.541c.524.243,1.2.475,1.134,1.188-.058.683.287.767.792.848a4.119,4.119,0,0,1,2.125,1.19c.434.4.905.9.48,1.52-.387.562-1.044.468-1.617.282-.673-.22-1.18-.771-1.853-1.007a1.119,1.119,0,0,0-1.3.2,2.221,2.221,0,0,1,1.887,2.806c-.134.832.66,1.034,1.027,1.522.383.508.1,1.653,1.458,1.282.487-.133,1.055.773.96,1.468a2.926,2.926,0,0,0,1.177,2.63,7.132,7.132,0,0,1,2.431,3.931c.081.333.456.526.675.8.659,1.213,2.39,1.824,2.011,3.632-.072.346.4.352.6.533a3.8,3.8,0,0,1,1.258,4.063,2.926,2.926,0,0,0-.325,2.692c.724,2.093,1.434,4.207,2.152,6.312.18.529-.186.916-.517,1.226a3.424,3.424,0,0,0-.836,3.547,35.774,35.774,0,0,1,.834,9.273c-.045.692.267,1.732-1.025,1.76-.532-.55-.266-1.34-.595-1.951a12.677,12.677,0,0,1-.231-3.494c.155-2.144-1.067-3.365-2.764-4.276a1.684,1.684,0,0,0-2.09.183c-1.406,1.167-1.447,1.117-2.587-.18-.609.54-.988,1.319-1.745,1.706a1.283,1.283,0,0,1-1.335.069c-.5-.315-.422-.8-.266-1.255.727-2.11.016-4.17-.218-6.241a2.457,2.457,0,0,0-1.309-1.777,2.354,2.354,0,0,1-1.3-2.145,2.1,2.1,0,0,1,1.415-1.865c1.172-.4,1.142-1.152.832-2.085-.347-1.041-.535-2.05.426-2.921.407-.37.192-.742-.156-1.043a13.405,13.405,0,0,0-3.156-2.05c-3.077-1.44-6.558-1.218-9.577-2.736a6,6,0,0,0-4.972-.107c-2.3.894-4.588,5.893-3.828,8.232.137.423.214.956.931.707,3.853-1.335,6.163,1.351,8.63,3.439a7.549,7.549,0,0,1,2.287,3.9c.186.7.346,1.395-.39,1.907-1.5.2-1.958-1.109-2.333-1.988-.947-2.22-2.886-2.866-4.779-3.85-1.039-.54-.767.381-1.141.485a.439.439,0,0,1-.438-.09c-.205-.255-.109-.549-.1-.832-.145.337-.554.427-.7.759a1.4,1.4,0,0,1-.429.534c-.3.106-.521-.146-.789-.161a.886.886,0,0,1-.556.185,3.43,3.43,0,0,0-3.877-.788,93.292,93.292,0,0,0-9.468,4.542c-.661.362-1.365,1.02-2.232.365a46.865,46.865,0,0,1-4.259-23.644c.711-7.471,3.437-13.988,10.111-18.227a7.1,7.1,0,0,1,2.876-1.241c.418.846-.325,1.273-.676,1.83-.339.538-.867.939-1.361,1.7,2.277.138,4.2,1.117,6.245,1.342,5.29.582,9.513,3.167,13.669,6.288,3.143,2.36,5.62,5.273,8.3,8.031a30.417,30.417,0,0,0,3.472,3.227,4.146,4.146,0,0,1,1.729,2.313c.15.173-.046-.068.1.113-.047-.055-.092-.11-.145-.176a31.787,31.787,0,0,0-1.853-5.289c-.08-.219.1-.043-.076-.148-2.521-1.485-2.827-4.683-5.1-6.449-1.422-1.108-2.417-2.746-3.8-4.02-.806-.745-1.307-1.538-2.51-1.8-1.226-.27-1.35-1.347-1-2.409.207-.632.443-1.211-.044-1.813-.571-.7-1.113-1.11-1.707-.014a2.244,2.244,0,0,1-1.848,1.443,1.746,1.746,0,0,1-1.875-1.019,1.342,1.342,0,0,1,.6-1.672c.223-.178.52-.285.645-.74a14.505,14.505,0,0,0-2.972-.755C5886.363,780.006,5885.553,780.136,5885.594,779.176Z" transform="translate(-21.168 -0.059)" fill="#1b1b1b"/>
    <path id="Path_2639" data-name="Path 2639" d="M5834.668,899.228c-4.828-.075-9.194-1.769-13.315-4.068-2.05-1.144-4.141-2.176-6.238-3.216-4.865-2.415-8.757-6.044-12.383-10.022-1.074-1.178.118-1.237.553-1.722a5.551,5.551,0,0,1,2.857-2.163,6.256,6.256,0,0,0,5.553-.037,2.393,2.393,0,0,1,1.707.174,4.12,4.12,0,0,0,3.823-.468c.675-.216,1.268-.729,2.047-.559a1.576,1.576,0,0,1,.814,2.212,1.533,1.533,0,0,1-1.941.817c-1.366-.308-1.835.284-1.817,1.555a5.541,5.541,0,0,1-.17,1.4,1.679,1.679,0,0,0,1.085,2.1,10.539,10.539,0,0,0,9.623.547,3.436,3.436,0,0,0,1.889-1.756c1.008-2.307,2.182-4.56,2.16-7.194-.006-.761-.121-2.017.929-1.976,1.183.046.851,1.313.886,2.143a18.407,18.407,0,0,1-.932,7.117c-2.617,7.216-9.807,9.038-16.217,5.869-.47-.232-.869-.608-1.112-.616,2.351,1.586,5.3,2.524,8.175,3.647a11.051,11.051,0,0,0,8.714-.23c4.5-2.057,6.494-5.85,7.235-10.486.712-4.446.17-8.863-.478-13.257-.372-2.529-.8-5.08-2.292-7.271a17.506,17.506,0,0,1-1.955-4.86c.021-1.279-.895-2.146-1.452-3.148-3.118-5.6-7.792-9.679-13.059-13.311a1.183,1.183,0,0,0,.487,1.473,13.076,13.076,0,0,1,4.047,5.619,1.259,1.259,0,0,0,.666.78,3.078,3.078,0,0,1,1.709,2.117c.485,1.282.663,2.645,1.847,3.651a1.375,1.375,0,0,1-.218,2.169c-.751.483-1.348-.174-1.74-.757a48.334,48.334,0,0,0-11.863-11.675,21.429,21.429,0,0,0-12.754-4.441,7.81,7.81,0,0,1-2.265-.276c-1.056-.318-1.091-.387-1.227-1.765-.051-.094-.1-.041-.231.049-.694.486-1.48,1.654-2.179,1.07-.923-.773.05-1.888.561-2.636,3.192-4.677,7.639-6.834,13.3-6.191a29.945,29.945,0,0,1,15.128,5.625c-2.736-2.278-5.978-3.747-9.087-5.366a15.454,15.454,0,0,0-6.387-1.811,10.277,10.277,0,0,1-2.238-.459,9.33,9.33,0,0,0-4.51-.46,1.845,1.845,0,0,1-1.445-3.318,14.288,14.288,0,0,1,1.966-1.481c3.049-1.685,6.38-1.9,9.732-1.7a26.943,26.943,0,0,1,11.08,3.083c1.544,1.115,3.422,1.744,4.688,3.274.329.4.9.062,1.339.221l0,0c.474,1.547.291,1.808-1.667,2.244a1.987,1.987,0,0,1,1.761,2.01,4.88,4.88,0,0,0,.818,2.464c.3.384.328.935,1.208.646.711-.234,1.133.746,1.31,1.4.714,2.631,2.576,4.417,4.43,6.217a1.622,1.622,0,0,1,.6,1.036c.028.407-.014.817-.018,1.226.048-.317-.013-.712.312-.887.6-.322.8.2,1.057.575a2.012,2.012,0,0,1,.152.736c-.042.741-.443,1.616.779,1.852.2.038.343.318.434.533a7.023,7.023,0,0,1,.208,5.859c-.606.347-1.221.6-.736,1.562.388.767.536,1.658.982,2.419a27.457,27.457,0,0,1,3.377,8.748c.111.574.438,1.078.595,1.642a2.273,2.273,0,0,1,.079.792,72.1,72.1,0,0,0,.556,7.225c.235,1.564-.386,3.28-.562,4.943a17.629,17.629,0,0,1-4.275,10.452c-1.156,1.145-2.258,2.423-3.861,2.908-2.211.669-2.419,2.4-2.5,4.247C5834.778,898.474,5835.038,898.881,5834.668,899.228Z" transform="translate(-2.355 -11.406)" fill="#070707"/>
    <path id="Path_2640" data-name="Path 2640" d="M5829.877,893.921a10.382,10.382,0,0,1-9.09.24c-1.941-.864-4.178-1.1-5.9-2.4-1.345-1.019-3.243-1.256-4.406-3.226a41.128,41.128,0,0,0,5.423,2.331c7.329,2.487,13.429-1.814,14.365-8.92a26.79,26.79,0,0,0,.068-6.079c-.705,1.107-.437,2.376-.634,3.558-.4,2.4-1.166,4.865-2.781,6.474a8.282,8.282,0,0,1-7.4,2.024,10.838,10.838,0,0,1-1.508-.482c-4.625-1.555-4.742-1.7-3.933-6.409.16-.927.847-1.276,1.854-.906.664.244,1.509.744,2.07-.078.507-.746.084-1.452-.507-2.025a1.656,1.656,0,0,1-.344-1.881c2.467-1.96,1.994-4.6,1.421-7.1-.567-2.472,1.313-3.728,2.308-5.4.447-.75,1.233-.481,2.566.555.12.005.263-.049.265-.164a14.551,14.551,0,0,0-1.784-7.915c-.216-.354-.524-.765-.913-.783-1.877-.088-3.359-1.35-5.152-1.668-.347-.062-.672-.232-1.015-.028-.9.536-1.674.125-2.483-.274a8.038,8.038,0,0,0-4.707-1.175c-2.057.286-2.466,1.024-1.348,2.706.742,1.117.533,1.836-.6,2.39a1.647,1.647,0,0,0-1.037,1.829c-.876,1.464-2.187,1.514-3.643,1.134-2.275-.593-2.3-.566-1.851,1.74a6.6,6.6,0,0,1,.189,1.554,2.682,2.682,0,0,1-1.675,2.624c-1.414.687-2.7,1.615-4.145,2.24a1.058,1.058,0,0,1-1.028.084c-2.455-6.314-3.777-12.742-2.994-19.613.429-3.761-.106-7.612.879-11.37,1.545-5.892,4.394-10.839,9.752-14.06a6.31,6.31,0,0,1,1.135-.421c-.6.643-1.187,1.294-1.8,1.927-.47.489-.875.947-.38,1.679a1.252,1.252,0,0,0,1.575.664,7.334,7.334,0,0,1,3.807.2c2.739.732,5.6.926,8.287,1.894a12.711,12.711,0,0,1,2.68,1.3c1.756,1.156,3.69,1.961,5.518,2.968a25.411,25.411,0,0,1,2.791,2c.38.284.82.642.425,1.144-.377.477-.853.238-1.229-.1a26.588,26.588,0,0,0-4.073-2.7c-1.955-1.206-4.143-1.551-6.239-2.213a20.528,20.528,0,0,0-8.122-.884c-4.827.428-7.922,3.023-10.077,7.089-.149.281-.567.47-.329,1.015a15.475,15.475,0,0,1,3.395-2.339c.2.513-.239.655-.416.918-.608.9-.57,1.359.666,1.7a21.536,21.536,0,0,0,3.458.189c6,.712,10.936,3.495,15.425,7.441,2.678,2.355,5.006,5.017,7.545,7.487.428.417.264,1.027.636,1.414.346.359.649,1.088,1.208.765s.427-1.443.138-1.545c-1.94-.681-1.527-2.544-2.129-3.882-.119-.266-.125-.687-.321-.8-2.645-1.536-2.83-4.888-4.95-6.675-.619-.522-1.171-1.162-1.813-1.677a.767.767,0,0,1,0-1.332,1.026,1.026,0,0,1,1.555-.033c2.357,2.305,5.179,4.07,7.466,6.463a42.368,42.368,0,0,1,6.651,9.555,2.281,2.281,0,0,1,.064.869c-.93.22-1.171-.6-1.536-1.106-1.969-2.751-4.009-5.449-6.067-8.152a27.8,27.8,0,0,0,2.973,5.139,7.056,7.056,0,0,1,1.514,3.191c.067.5-.1,1.045.311,1.475a5.571,5.571,0,0,1,.4.574,53.141,53.141,0,0,1,2.952,5.064c.733,1.681,1.855,3.5.944,5.768a32.15,32.15,0,0,0-2.065,11.224,11.5,11.5,0,0,1-1.125,4.921,48.716,48.716,0,0,0-2.44,5.835c-.348,1.022-.294,1.66.855,1.946A.769.769,0,0,1,5829.877,893.921Z" transform="translate(-0.726 -12.071)" fill="#232323"/>
    <path id="Path_2641" data-name="Path 2641" d="M5942.974,819.843c1.383,3.739,2.808,7.521,2.993,11.51.281,6.019.8,12.1-.333,18.067-1.2,6.292-4,11.739-9.724,15.229a17.682,17.682,0,0,1-8.162,2.424c-.215-2.071-.143-3.856,1.738-5.467a21.078,21.078,0,0,0,5.239-7.808c1.928-4.421,3.011-8.958,1.859-13.859a3.188,3.188,0,0,1,1.136-3.619c.963-.614.812-1.612.77-2.491a10.768,10.768,0,0,0-.526-3.055c-.3-.808-1.335-1.433-2.008-2.19-1.159-1.3-1.144-1.619.507-2.122a3.758,3.758,0,0,0,.664-.225,1.777,1.777,0,0,1,.694-.238c1.359.1,1.829,1.32,2.875,2.3a28.75,28.75,0,0,0-3.459-8.691c-.938-1.409-1.13-3.188-2.408-4.4-.308-.293-.154-.774.243-1.059a2.464,2.464,0,0,1,2.436,1.6,2.357,2.357,0,0,0,1.78,1.444,1.512,1.512,0,0,1,.768.908,4.8,4.8,0,0,0,.485.924,1.234,1.234,0,0,1-.2-.923c1.639-1.377,1.709.581,2.44,1.142A.575.575,0,0,1,5942.974,819.843Z" transform="translate(-38.627 -9.638)" fill="#474747"/>
    <path id="Path_2642" data-name="Path 2642" d="M5868.772,868.332c1.526,2.935,2.078,6.156,2.74,9.345.093.446-.038.948.351,1.315.663,5.58.685,11.129-1.052,16.544-1.887,5.885-5.2,10.6-11.092,13.124a17.126,17.126,0,0,1-5.8,1.271c.912-1.727,1.982-3.377,3.046-4.992,2.242-3.405,4.879-6.559,5.687-10.715.1-.521.455-.958.6-1.458.475-1.614,1.1-3.015.6-4.982-.708-2.763-.6-5.83,1.6-8.242.645-.706.506-1.218-.255-1.7-.989-.624-1.25-1.169.053-1.828,1.181-.6,1.293-1.554.311-2.49a8.641,8.641,0,0,1-2.272-3.264c.182-1.371.054-2.6-1.312-3.4a3.185,3.185,0,0,1-.979-1.2c-.612-.975-.739-1.9.3-2.689,1.851-.064,1.93,1.948,3.215,2.806-.555-1.964-2.171-3.423-1.789-5.511a1.214,1.214,0,0,1,.275-.412c1.638-.086,1.9,1.384,2.4,2.354a55,55,0,0,1,2.807,5.745A.761.761,0,0,0,5868.772,868.332Z" transform="translate(-18.427 -22.159)" fill="#464646"/>
    <path id="Path_2643" data-name="Path 2643" d="M5889.392,779.117c1.357.763,2.954.544,4.374,1.065.428.157,1.021.083,1.095.681.078.638-.523.656-.936.847-.511.235-1.238.33-1.2,1.091.028.584.469.831,1.055.991a1.419,1.419,0,0,0,1.745-.8c.385-.638.16-1.811,1.4-1.665,1.172.138,1.366,1.361,2.055,2.04.387.38.072.757-.279,1.026a1.31,1.31,0,0,0-.351,1.745,1.556,1.556,0,0,0,1.846.643c1.26-.333,1.7.065,1.325,1.334-.106.355-.145.786.37.767,1.4-.054,1.843,1.2,2.435,1.971,1.139,1.485,2.37,2.869,3.632,4.236.321.348.8.807.581,1.2-.461.836.169,1.126.607,1.358,2.391,1.266,2.59,3.747,3.334,5.911.134.391-.093.905-.154,1.363l0,0c-2.688-2.537-5.462-4.992-8.028-7.648a34.836,34.836,0,0,0-3.335-3.556c-2.921-2.287-5.754-4.745-9.1-6.365-2.649-1.284-5.645-1.64-8.539-2.206-1.625-.317-3.242-.674-4.855-1.047-.7-.161-1.015-.571-.221-1,1.254-.682,1.828-1.92,2.643-2.965A17.546,17.546,0,0,1,5889.392,779.117Z" transform="translate(-24.965)" fill="#0b0b0b"/>
    <path id="Path_2644" data-name="Path 2644" d="M5934.165,829.762c.215,1.265-.6.249-.9.37-.318.131-.751.091-.832.5-.146.741.392.266.632.307.432.073.565.449.635.756.261,1.131.743,1.75,1.982.885-.3,2.432.352,4.565.63,6.707-.779-.068-1.726,1.145-1.951,2.045-.678,2.69.64,5.316.128,7.948-.294,1.506-.139,3.146-1.234,4.476-.56.679-.854,1.534.335,1.947-1.788,1.365-2.289,3.455-3.4,5.124-1.249,1.881-2.372,3.823-4.326,5.085a1.1,1.1,0,0,0-.59,1.152,7.122,7.122,0,0,1-.612,3.224,2.145,2.145,0,0,1-.326.1l-3.9-.111c-.757-1.254-2.355-1.522-3.173-2.707-.352-.508-1.076-.894-.781-1.631.251-.629.971-.552,1.527-.661.573-.113,1.154-.193,1.731-.283,6.062-.945,9.406-4.711,10.915-10.431.321-1.215.274-2.546,1.076-3.62.729-1.806.345-3.694.295-5.531a17.8,17.8,0,0,0-.776-5.344,3.588,3.588,0,0,1,1.6-4.647c-.067-.658-1.107.286-.96-.867.115-.917.851-2.455-1.178-2.633-.378-.033-.049-.593.036-.913a2.618,2.618,0,0,0-.687-2.611c-1.124-1.282.6-1.685.987-2.509A3.717,3.717,0,0,1,5934.165,829.762Z" transform="translate(-35.546 -12.856)" fill="#262626"/>
    <path id="Path_2645" data-name="Path 2645" d="M5939.2,811.99c-.747.269-.656-.456-.812-.764a.937.937,0,0,0-1.242-.6,2.668,2.668,0,0,1-1.49-1.387,45.89,45.89,0,0,0-4.894-7.757c1.009,1.289,2.315,3.221,3.547,5.2a5.692,5.692,0,0,1,1.293,3.3c-.747.147-1.468.007-1.659-.78a3.809,3.809,0,0,0-2.218-2.416c-.982.174-1.291-.662-1.721-1.224-1.171-1.525-2.25-3.12-3.533-4.558a2.516,2.516,0,0,0-1.4-1.072c-.6,1.591.915,2.533,1.153,3.837.067,1.219,1.127,1.809,1.718,2.7a1.054,1.054,0,0,1,.057.476c-.236.558-.695.626-1.218.552-1.339-.672-.964-2.3-1.8-3.255-.285-.326-.285-.847-.957-.844-.608,0-2.109-2.567-1.793-3.108.5-.855-.1-1.219-.574-1.589-.768-.6-.641.589-1.159.647-.1-1.026-.125-2.034-1.414-2.437-.75-.235-.265-.968-.228-1.5.064-.958.384-2.1-1.347-1.76-.572.113-1.244-.483-1.063-.87a1.82,1.82,0,0,1,1.987-1.026,3.052,3.052,0,0,1,1.673.89c.56.68,1.181.559,1.883.6-.656-1.568-1.3-1.928-4.554-2.5,1.851-.95.959-1.463-.141-1.945a4.227,4.227,0,0,1-2.135-1.757,39.282,39.282,0,0,1,14.993,10.712q1.159,1.323,2.31,2.652a2.287,2.287,0,0,1,1.677,2.137q.384.537.765,1.074c2.286,2.116,3.323,4.957,4.469,7.732A.68.68,0,0,1,5939.2,811.99Z" transform="translate(-35.201 -2.212)" fill="#2e2d2d"/>
    <path id="Path_2646" data-name="Path 2646" d="M5862.057,873.992c1.167,1.221,1.817,2.941,3.527,3.635-.671.545-.022,1.255-.2,1.781-.3.883-1.179,1.2-2.324,1.31a12.184,12.184,0,0,1,1.422.71c.862.6,1.352,1.092.266,2.147-1.5,1.454-2.494,3.252-1.755,5.526.1.293-.108.675-.13,1.019-.038.582-.3,1.429-.017,1.705,1.937,1.9-.276,3.379-.5,5.01-.114.818-.663,1.7-.827,2.617-.365,2.022-1.6,3.591-2.549,5.333a16.636,16.636,0,0,1-1.942,2.92c-1.677,1.923-2.021,4.811-4.5,6.1a1.076,1.076,0,0,1-.326.123l-2.854-.074c-.968-1.005-.328-2.106-.25-3.2.114-1.612,1.184-2.094,2.469-2.515,1.536-.5,2.578-1.745,3.792-2.727.536-.138,1.068-.1,1.4-.8,1.069-2.3,2.1-4.584,2.985-6.982.846-2.3.106-4.678,1.186-6.8-1.031-2.571-.019-5.484-1.341-8.006v-.7c-.336-2.061.869-3.73,1.572-5.472C5861.5,875.769,5861.032,874.6,5862.057,873.992Z" transform="translate(-17.027 -26.032)" fill="#2c2c2c"/>
    <path id="Path_2647" data-name="Path 2647" d="M5864.847,860.082c-.912.6-.955-.15-1.243-.723-1.218-2.409-2.487-4.792-3.762-7.172-.128-.24-.424-.391-.642-.583-.788-.1-.993-.762-1.23-1.339-1.262-3.089-3.69-5.279-5.77-7.76a17.281,17.281,0,0,0-3.317-3.463c-.243-.166-.225-.811-.717-.485a.76.76,0,0,0-.12,1.22c1.112,1.331,1.894,2.919,3.309,4.02.96.748.894,1.905-.035,2.949-.573-.119-.577-.114-.786,1.017-.546-.314-.517-.849-.548-1.353-.025-.407.05-1.072-.279-1.131-1.837-.328-1.788-2.757-2.834-3.054-2.059-.583-1.215-2.331-1.99-3.35-.579-.759-.56-.53-1.412-.9a3.824,3.824,0,0,1-1.93-2.83,13.97,13.97,0,0,0-.192-1.725c-.132-.391-.211-1.549-1.1-.406-.264.339-.422-.166-.52-.409-.229-.574-.258-1.048.567-1.071a1.461,1.461,0,0,0,1.611-1.791c3.545,1.938,6.207,4.923,9.039,7.693,1.291,1.264,2.432,2.684,3.641,4.033,1.274.541,1.678,1.864,2.523,2.793a10.4,10.4,0,0,1,1.052,1.38c1.869,2.823,3.353,5.863,4.959,8.831.4.735.979,1.52.347,2.435Q5864.156,858.494,5864.847,860.082Z" transform="translate(-14.5 -13.91)" fill="#2a2a2a"/>
    <path id="Path_2648" data-name="Path 2648" d="M5862.428,845.012a11.889,11.889,0,0,1-2.186-3.075c2.2-1.719,5-2.459,7.123-4.314,3.052-1.474,6.094-2.962,9.155-4.414a18.674,18.674,0,0,0,3.506-1.58c.834-.644.872.82,1.822.234,1.276-.789.8.995,1.269,1.518a.909.909,0,0,1,.134,1.5c-.649.614-1.659.5-2.457.936-.292.161-.415-.55-.332-.949-.222.429.056,1.013-.381,1.4-.625.142-.614-.283-.7-.643-.25.363.193,1.359-.711,1.258-.446-.05-.248-.721-.209-1.11-.155.261-.026.952-.308.863-2.032-.638-2.576,1.971-4.316,1.913-.2-.007-.3.33-.362.558a2.875,2.875,0,0,1-.24.657c-.12.2-.269.425-.529.355-.459-.123-.419-.552-.476-.911-.073.433-.024,1.086-.729.805-.411-.164-.3-.708-.14-1.274a4.433,4.433,0,0,0-.065,1.841c.009.589.069,1.347-.908,1.313-.4-1.2.08-2.415-.062-3.622.041-.235-.361.078-.138,0a13.3,13.3,0,0,1-.154,4.107.659.659,0,0,1-.389.294c-.973-.59-.238-1.477-.394-2.058.029-.388-.287-.142-.057-.194.038-.009.07.05.042.163-.18.691.176,1.564-.723,2.07-.637-.553-.162-1.309-.359-1.889a6.228,6.228,0,0,1-.012,1.351c-.046.448.087,1.077-.53,1.146-.7.078-.621-.51-.57-.984-.371.107-.74.214-.946-.264a1.024,1.024,0,0,0,.111.42,1.379,1.379,0,0,1,.079.517c-.054.5-.239.98-.773,1.043-.8.092-.322-.694-.6-1.039-.025-.183-.216.176-.02.046.064-.043.1,0,.107.127a1.913,1.913,0,0,1,0,.351c-.069.449.391,1.251-.477,1.2-.684-.04-.589-.736-.44-1.274-.1.463-.149.433-1.019.724C5862.938,844.175,5862.872,844.857,5862.428,845.012Z" transform="translate(-20.158 -14.382)" fill="#535354"/>
    <path id="Path_2649" data-name="Path 2649" d="M5946.647,817.273c-1.117-2.954-2.962-5.536-4.3-8.378,2.095.178,3.561-1.21,5.128-2.2.877-.555,1.26-.484,1.844.254a7.328,7.328,0,0,1,1.874,4.947,6.223,6.223,0,0,1-4.2,5.809Z" transform="translate(-42.65 -7.496)" fill="#f5f5f6"/>
    <path id="Path_2650" data-name="Path 2650" d="M5940.663,806.834l-1.677-2.137c1.564-1.952,5.485-2.634,6.983-1.24.454.422.767.752,0,1.136C5944.249,805.454,5942.631,806.558,5940.663,806.834Z" transform="translate(-41.728 -6.509)" fill="#5a5a5c"/>
    <path id="Path_2651" data-name="Path 2651" d="M5840.51,828.424c-.4.228-.812.443-1.2.688-.271.17-.65.29-.687-.072-.205-2.045-2.05-2.33-3.33-3.23a5.447,5.447,0,0,1-.809-.881A23.523,23.523,0,0,1,5840.51,828.424Z" transform="translate(-13.101 -12.592)" fill="#2a2a2a"/>
    <path id="Path_2652" data-name="Path 2652" d="M5792.247,885.532l.667-.3c.547.616.612.771-.01,1.032-1.431.6-2.146,2.031-3.448,2.75-.592.152-.783-.41-1.154-.651C5789.2,886.839,5790.738,886.209,5792.247,885.532Z" transform="translate(-0.451 -29.112)" fill="#999795"/>
    <path id="Path_2653" data-name="Path 2653" d="M5806.469,895.112a11.037,11.037,0,0,1-2.8,1.792c-.471-.46.4-.669.125-1.22-1.355.8-1.753,2.832-3.833,2.973.454-.749,1.449-.973,1.424-2.051a5.258,5.258,0,0,0-2.413,1.661,3.014,3.014,0,0,1-2.324,1.383c.814-1.284,1.678-2.56,1.359-4.2-.193-.986,1.3-1.057,1.049-2.042a1.624,1.624,0,0,1,.936-1.356,2.969,2.969,0,0,0,1.363-2.26.916.916,0,0,1,.582-.433,2.851,2.851,0,0,0,3.388-1.038,1.376,1.376,0,0,1,1.1-.689c1.78-.14,2.258-2.006,3.556-2.81.127-.078.037-.337-.086-.477a.677.677,0,0,0-.805-.142,28.984,28.984,0,0,0-4.08,1.589,15.82,15.82,0,0,1-4.56,1.788c-.657-.1-1.13-.449-1.093-1.136.032-.595.538-.892,1.076-1.013a8.849,8.849,0,0,0,3.274-1.823c1.975-1.462,4.378-1.686,6.724-2.033a3.059,3.059,0,0,1,1.763,2.25,2.823,2.823,0,0,0,.638,1.906,4.465,4.465,0,0,1-1.229,7.054c-1.036.131-2.235-.324-2.846,1.115C5808.373,894.8,5806.978,894.2,5806.469,895.112Z" transform="translate(-2.737 -28.111)" fill="#bdbec0"/>
    <path id="Path_2654" data-name="Path 2654" d="M5800.091,888.381c-.043.233-.111.44-.418.394-.833-.083-1.252-.775-1.813-1.249a1.453,1.453,0,0,0-2.038-.046c-.712.562-.244,1.111.027,1.682.408.859,1.177,1.628.76,2.722-.4.311-.781.462-1.1-.092-1.387-2.183-2.818-4.314-5.615-4.87a4.107,4.107,0,0,1,2.347-2.814c.418-.159,1.475.168,1.112-.968a19.818,19.818,0,0,1,4.33-2.531,2,2,0,0,0,1.354-2.146c1.323.536,2.27-.576,3.425-.783a5.886,5.886,0,0,1,5.345,1.6c.4.393,1.013.695.654,1.435a6.11,6.11,0,0,1-3.542,1.079c-1.353.057-1.867,1.613-3.17,1.207.161,1.08-.76.8-1.281,1.006-.7.27-1.321.668-2.08.892-1.513.448-.345,1,.188,1.447A1.753,1.753,0,0,1,5800.091,888.381Z" transform="translate(-0.887 -27.016)" fill="#49494b"/>
    <path id="Path_2655" data-name="Path 2655" d="M5798.292,894.873c-.413-.761-.878-1.5-1.22-2.292-.258-.6-1.416-1.1-.151-1.951.985-.664,1.778-1.557,2.952-.38a7.5,7.5,0,0,1,1.567,1.838,1.529,1.529,0,0,1-.806,2.341,11.755,11.755,0,0,0-1.663,1.2,1.688,1.688,0,0,0-.263-.133C5798.331,895.447,5798.473,895.053,5798.292,894.873Z" transform="translate(-2.653 -30.328)" fill="#f3f3f3"/>
    <path id="Path_2656" data-name="Path 2656" d="M5798.644,896.833l.416.623c-.09.327-.176.733-.59.7-.632-.044-.73-.6-.846-1.093C5798.006,897.17,5798.383,897.258,5798.644,896.833Z" transform="translate(-3.005 -32.289)" fill="#999795"/>
    <path id="Path_2657" data-name="Path 2657" d="M5922.629,847.863a17.226,17.226,0,0,1-4.248,10.84c-2.918,3.253-6.867,3.592-10.8,4.327,1.093,1.054,1.835,2.329,3.378,2.736.613.162.831.8.379,1.43a29.974,29.974,0,0,1-11.3-3.587,53.414,53.414,0,0,1-16.323-13.769,6.71,6.71,0,0,1-.528-.888c.147-.639.677-.924,1.169-1.226,2.929-1.8,5.821-3.657,8.708-5.524a44.954,44.954,0,0,1,4.346-2.938c1.683-1.145,2.742-2.5,2.613-4.609a1.065,1.065,0,0,1,.393-.934c.487-1.77-.632-3.021-1.415-4.381a6.912,6.912,0,0,0-3.236-3.046c-1.766-.668-3.4-2.687-5.692-1.178-.885.584-1.354.129-1.473-.85-.288-2.362-.164-4.454,1.5-6.539,1.188-1.487,2.114-2.816,4.13-3.043a8.731,8.731,0,0,1,5.243,1.112c1.672.922,3.543.5,5.252,1.15.578.22,1.287.073,1.716.745.117.182.415.436.546.394,2.323-.738,2.987,1.652,4.517,2.394.661.321.738,1.016-.026,1.332-1.209.5-1.126,1.271-.743,2.253a12.447,12.447,0,0,1,.515,1.857c.13.585.121.987-.75.937a1.789,1.789,0,0,0-1.982,1.59c-.236.259-.257.738-.563.857-2.191.848-2.141,2.586-1.848,4.452a2.3,2.3,0,0,1-.144,1.2c-.677,1.221-.521,2.8-1.788,3.8a6.389,6.389,0,0,1-1.941,1.348c-.1.193-.711-.091-.424.464a5.2,5.2,0,0,1,2.619.958c.54.406,1.037.854.757,1.6-.309.832-1.026.876-1.761.733a17.939,17.939,0,0,1-4.6-1.7c-.45-.224-.98-.79-1.412-.322-.529.572-.083,1.2.354,1.709a5.7,5.7,0,0,1,.578.661,1.1,1.1,0,0,1-.1,1.451,1.025,1.025,0,0,1-1.432.187c-.71-.531-1.584-.744-2.4-1.4a2.037,2.037,0,0,0,.971,2.57,2.724,2.724,0,0,1,.431.23,8.535,8.535,0,0,1,2.408,1.309c1.513,1.1,2.551,2.725,4.282,3.584a2.213,2.213,0,0,1,1.183,2.047c-.071,1.017.325,1.23,1.229,1.419,1.648.346,3.161,1.148,4.83,1.531,3.965.911,9.14-1.74,10.507-5.534a7.333,7.333,0,0,0,.176-1.037,2.643,2.643,0,0,1,.146-.489,11.5,11.5,0,0,0,.848-3.468c.142-.428.208-.932.849-.871C5922.875,846.362,5922.531,847.15,5922.629,847.863Z" transform="translate(-26.442 -9.772)" fill="#0b0b0b"/>
    <path id="Path_2658" data-name="Path 2658" d="M5913.183,840a1.313,1.313,0,0,0,.017-.345c-.546-2.709-.463-5.115,2.844-5.994,0,.479-.015,1.07.473,1.243,2.711.963,2.434,3.413,2.63,5.491.115,1.22.89,2.643-.377,3.789a.389.389,0,0,0,.064.615.732.732,0,0,0,.823-.088,7.6,7.6,0,0,0,1.828-2.1c.23-.322.479-.793.952-.611.43.166.213.586.108.913-.133.413-.222.875.281,1.049.477.166.8-.295.952-.614.671-1.411,1.567-1.126,2.737-.637a4.746,4.746,0,0,1,3.264,4.911c-.051,1.107.009,2.218.019,3.327-.364.274-.34.675-.35,1.065-1.087.957-.719,2.349-1.054,3.531-1.115,1.515-1.822,3.455-4.154,3.636-.667.052-.878.9-1.364,1.313-1.006.858-1.707.721-1.994-.573a4.1,4.1,0,0,0-1.631-2.183c-1.849,1.571-3.437,1.194-4.4-1.006a5.246,5.246,0,0,1,.428-4.569c.075-.159.269-.284.3-.421.125-.576,1.087.42.842-.375-.229-.743.057-1.838-1.459-1.979-1.694-.156-.228-1.282-.276-1.984-1.257-.134-2.2-1.035-3.389-1.383-.99-.29-.613-.951-.1-1.466A6.642,6.642,0,0,0,5913.183,840Z" transform="translate(-33.972 -14.985)" fill="#262626"/>
    <path id="Path_2659" data-name="Path 2659" d="M5890.641,847.662a114.186,114.186,0,0,1-10.187,6.366c-1.707,1.5-4.3,1.623-5.689,3.656-.146.214-.738.122-1.124.172-1.107-1.432.287-2.345.994-2.851,1.813-1.3,3.418-2.98,5.618-3.667.478-.15.025-.282.1-.424.312-.619.734-1.192,1.452-1.018.624.151.44-.05.418-.427-.036-.659-.066-1.407,1-1.083.012,0,.113.031.064,0-.872-.556-1.094-1.517-.41-2.055.891-.7,1.527.378,2.185.9.1.083.169.163.166.14a1.973,1.973,0,0,1-.741-2.648c.2-.411.525-.969,1.031-.386.741.855.989.079.825-.324-.525-1.287.537-1.449,1.175-1.906.524-.378.093-1.626,1.5-1.328.691.146-.143-1.569.921-1.862-.842.14-.525-1.284-1.424-1.059s-1.869.06-2.764.34a1.841,1.841,0,0,1-2.407-.825.765.765,0,0,1,.19-.712l.575-3.06.19,2.529c.533-.552.06-1.351.691-1.714.568.3-.288,1.007.313,1.3.682-.211.209-.863.537-1.232.147.283.293.558.457.873a1.429,1.429,0,0,0,.369-1.509q.041-.318.081-.638c.609-.187.45.343.547.606.166.454.273.161.4-.013.036-.2.071-.4.108-.6.055-.014.145-.057.16-.038a1.115,1.115,0,0,0,1.227.373h0a1.4,1.4,0,0,0,1.774.671,1.694,1.694,0,0,1,2.052.986,9.027,9.027,0,0,1,.331,8.263c-.171.372-.267.743-.748.884C5890.934,844.832,5890.994,846.376,5890.641,847.662Z" transform="translate(-23.715 -14.847)" fill="#a4a4a6"/>
    <path id="Path_2660" data-name="Path 2660" d="M5892.09,795.365c-2.115.129-3.894-.964-5.915-.949a14.785,14.785,0,0,0-8.793,2.654c-.277.2-.636.566-.868.506-2.043-.531-2.671,1.237-3.738,2.257-.327.313-.484.807-.948,1-.349.145-.625.672-1.071.314-.384-.308-.172-.73-.087-1.138.69-3.3,5.26-7.193,9.25-7.608a20.409,20.409,0,0,1,10.785,1.777C5891.218,794.415,5891.821,794.585,5892.09,795.365Z" transform="translate(-22.977 -3.651)" fill="#0b0b0b"/>
    <path id="Path_2661" data-name="Path 2661" d="M5896.662,846.99l-1.163-.728c.295-.507.92.373,1.109-.27.115-.388.534-.806-.17-1.178-.565-.3-.144-.293.164-.294.741,0,.949-.532,1.035-1.137.027-.2-.059-.673.168-.488,1.324,1.079.674-1.125,1.465-.838.049-1.7.841-3.405.237-5.063-.39-1.068-.453-2.373-1.807-3.026-.714-.343-1.355.975-2.009-.171-.22-.386-.543-.2-.474-.931.281-.69.563-1.381.881-2.159a.735.735,0,0,0,.8.674.758.758,0,0,1,.438.261c1.183,1.2,3.134,1.452,3.988,2.961.492.868.911,1.809,1.352,2.718.262.542.707.523,1.028.8.975,4.179-2.168,5.719-4.877,7.464C5898.107,846.053,5897.387,846.528,5896.662,846.99Z" transform="translate(-29.736 -14.175)" fill="#535354"/>
    <path id="Path_2662" data-name="Path 2662" d="M5931.168,814.954l1.065-.7c1.976-.041,2.963.956,2.769,2.854a1.315,1.315,0,0,0,.322,1.12c1.748,1.9,2.765,4.286,4.212,6.386.315.458.905.863.552,1.529-.389.734-1.069-.317-1.526.195l-.355.235c-.857-1.435-1.5-3.039-3.113-3.868a5.508,5.508,0,0,0-.576-2.624,1.329,1.329,0,0,0-2.2-.729C5934.555,817.053,5931.464,816.439,5931.168,814.954Z" transform="translate(-39.587 -9.668)" fill="#3c3b3c"/>
    <path id="Path_2663" data-name="Path 2663" d="M5894.7,832.827c-.525.214-.542.814-.873,1.2-.463-.444.032-1.164-.515-1.537-.1-1.048,1.682-.746,1.546-1.931Z" transform="translate(-29.215 -14.135)" fill="#535354"/>
    <path id="Path_2664" data-name="Path 2664" d="M5930.242,821.6c.5.084.789.351.794.822,0,.375-.182.731-.593.73a.776.776,0,0,1-.852-.877A.714.714,0,0,1,5930.242,821.6Z" transform="translate(-39.154 -11.68)" fill="#0b0b0b"/>
    <path id="Path_2665" data-name="Path 2665" d="M5925.358,814.719c.227.008.457.007.684.025.484.041.74.319.659.793a.686.686,0,0,1-.4.469c-.468.107-.748-.189-.869-.613a3.974,3.974,0,0,1-.073-.678Z" transform="translate(-37.996 -9.794)" fill="#0b0b0b"/>
    <path id="Path_2666" data-name="Path 2666" d="M5892.8,833.515l-.254,1.569c-.714-.7-.047-1.619-.693-2.161-.052-.359.02-.876.363-.8C5892.919,832.268,5892.356,833.136,5892.8,833.515Z" transform="translate(-28.813 -14.56)" fill="#535354"/>
    <path id="Path_2667" data-name="Path 2667" d="M5929.1,818.474c.147-.335.386-.634.74-.611.539.035.472.574.546.922.068.32-.16.548-.513.426S5929.078,819.006,5929.1,818.474Z" transform="translate(-39.02 -10.656)" fill="#0b0b0b"/>
    <path id="Path_2668" data-name="Path 2668" d="M5844.284,907.13c-2.756-.729-2.94-1.08-1.486-3.892.568-1.1.854-2.331,1.51-3.353,1.6-2.484,1.771-5.232,1.708-8.035-.03-1.337.721-2.495.734-3.845,0-.5.2-.943-.147-1.415-.126-.173-.244-.518-.159-.653a7.589,7.589,0,0,0,1.541-3.607c.022-.295.6-1.058.355-1.613-.642-1.454-.6-3.051-1.71-4.493-.939-1.22-2.144-2.613-2.36-4.365.757-1.125,1.332-.475,1.831.226a33.075,33.075,0,0,1,2.25,4.328,7.842,7.842,0,0,0,.667,1.115c-.523-.685-.873-1.37-.154-2.157,1.353,1.839,1.762,3.956,2.327,6.145a43.507,43.507,0,0,1,1.086,10.547c.058,5.629-1.078,10.995-6.407,14.348A4.057,4.057,0,0,1,5844.284,907.13Z" transform="translate(-15.134 -25.281)" fill="#3f3e3e"/>
    <path id="Path_2669" data-name="Path 2669" d="M5810.175,895.644c.026-.778.667-1.2,1.024-1.836.57.184,0,.6.3.931a5.989,5.989,0,0,0,1.735-2.819c.753.436.036.936.292,1.334.529.239.959-2.207,1.564-.072,2.041-1.051,2.933-3.041,2.116-5.636a3.461,3.461,0,0,1,1.031-3.906.97.97,0,0,1,.494-.118,3.722,3.722,0,0,0,.5.121c2.469-.041,2.516-.034,1.981,2.456-.436,2.03-1.371,3.99-.606,6.142.193.542.208,1.147.833,1.446,1.039.5.509,1.09.077,1.667a3.054,3.054,0,0,1-3.766.666,3.3,3.3,0,0,0-3.612.357c-1.076.9-2,.848-2.733-.361C5811.073,895.462,5810.58,895.779,5810.175,895.644Z" transform="translate(-6.443 -28.642)" fill="#919395"/>
    <path id="Path_2670" data-name="Path 2670" d="M5864.072,871.6c0,1.2.336,2.494-.893,3.372.834,1.8-1.944,2.655-1.186,4.454.016.036-.263.2-.4.3-1.027-1.4-.8-3.2-1.5-4.7a26.729,26.729,0,0,0-1.728-3.969,16.374,16.374,0,0,1-2.106-4.672c-.415-1.452.78-1,1.468-1.115.062.053.123.106.187.157.854,1.528,2.618.873,3.813,1.58l.238.01a15.837,15.837,0,0,0,2.234,2.487C5865.142,870.6,5864.221,870.938,5864.072,871.6Z" transform="translate(-19.042 -23.642)" fill="#2a2a2a"/>
    <path id="Path_2671" data-name="Path 2671" d="M5854.185,849.616c-.2-.906,1.265-2.471-1.047-2.658a14.947,14.947,0,0,1-1.384-2.178,9.258,9.258,0,0,0-1.23-1.666,1.752,1.752,0,0,1,.657-2.835c.338-.14.724-.023.741.218.129,1.8,2.262,1.873,2.74,3.126.443,1.168,1.37,1.7,2.043,2.552,2.055,2.592,4.3,5.066,5.363,8.3-.028.158-.055.315-.083.473-.906.108-1.42-.533-1.846-1.122-1.5-2.078-2.815-4.287-4.393-6.311a2.175,2.175,0,0,1-.307-.995c-.037-.232-.383.128-.173.021.049-.025.088,0,.1.089a4.267,4.267,0,0,0,1.295,2.775,1.107,1.107,0,0,1,.209,1.57c-1.063.513-1.62-.887-2.6-.687Z" transform="translate(-17.367 -16.78)" fill="#504f4f"/>
    <path id="Path_2672" data-name="Path 2672" d="M5847.539,871.277c-.21.979.432,1.791.533,2.711.042.371.127.757-.4.742-.385-.011-.681-.2-.417-.686.529-.966-.654-1.032-.887-1.634-.549-1.417-1.273-2.764-1.914-4.146-.331-.715-.775-1.021-1.506-.5l-.383-.364c-.276-.678.312-1.017.6-1.489.2-.078-.2-.226-.049-.043.033.041-.032.051-.12.122-.266.212-.5.23-.709-.061-.337-2.557-2.9-3.956-3.357-6.449-1.421,0-.739-1.561-1.529-2.055a.565.565,0,0,1-.167-.9c.376-.4.735-.19,1.06.128a54.539,54.539,0,0,1,4.11,5.321c1.2,1.5,2.266,3.112,3.39,4.674Q5846.67,868.961,5847.539,871.277Z" transform="translate(-13.812 -21.187)" fill="#747473"/>
    <path id="Path_2673" data-name="Path 2673" d="M5824.719,895.087c-.42-.168,1.067-1.486-.566-.935-.3.1-.384-.153-.441-.391-.512-2.151-1.342-4.34-.177-6.477.621-1.136-.09-2.6,1.131-3.433-.877-1.086-2.135,1.452-2.811-.455a3.725,3.725,0,0,1,4.614-.1,1.45,1.45,0,0,1,.576,1.557,13.33,13.33,0,0,0-.351,6.389,1.462,1.462,0,0,1-.275.993q0,1.044,0,2.09Z" transform="translate(-9.643 -28.374)" fill="#525254"/>
    <path id="Path_2674" data-name="Path 2674" d="M5862.042,886.151c1.864,1.07,1.018,2.972,1.358,4.5.6,2.689-.129,5.41.107,8.113.025.288.242.746.136.831-2.055,1.63-1.1,4.547-2.727,6.325a4.05,4.05,0,0,0-1.338,2.719c0,.42-.1.874-.577.981-.689.156-.749-.639-1.184-.884a19.827,19.827,0,0,0,4.343-12.225,35.384,35.384,0,0,0,.13-5.906A41.13,41.13,0,0,1,5862.042,886.151Z" transform="translate(-19.494 -29.363)" fill="#2a2a2a"/>
    <path id="Path_2675" data-name="Path 2675" d="M5855.734,853.96c1.176-.991,1.644.439,2.449.715,1.948.7,4.123,4.82,3.54,6.71a2.85,2.85,0,0,0,.024,2.437l-.088.081a.479.479,0,0,1-.63.008,7.06,7.06,0,0,0-3.53-1.85l.011.013c-.043-1.776.334-3.6-.526-5.279-.137-.27-.053-1.523-1.006-.467-.269.3-.386-.282-.481-.495C5855.2,855.175,5855.671,854.589,5855.734,853.96Z" transform="translate(-18.832 -20.45)" fill="#2a2a2a"/>
    <path id="Path_2676" data-name="Path 2676" d="M5823.093,886.685a11.358,11.358,0,0,1-.259-6.406c.585-1.96-.159-2.882-2.242-2.726-.69.052-1.375.193-2.063.294h0a1.773,1.773,0,0,1-1.518-1.708,15.8,15.8,0,0,0-1.026-4.032c-.028-.841.543-1.7-.6-2.426-1.165-.736-2.159-1.274-3.4-.329-.609.195-1.169.63-1.869.412-.972-1.273.029-1.834.931-2.244s1.339-.683.407-1.528c-.717-.651-1.42-1.581-.884-2.462a3.471,3.471,0,0,1,2.583-1.194c1.97-.261,3.67.558,5.357,1.4a5.287,5.287,0,0,0,1.041.5c1.076-1.446,2.13-.232,3.2-.041,1.375.245,2.461,1.115,4,1.258,1.7.158,2.389,2.516,2.532,4.049.174,1.85,1.355,3.61.631,5.565-.115.311.325.837-.329.964a1.058,1.058,0,0,1-1.149-.626c-.288-.475-.43-1.182-1.248-.956a1.206,1.206,0,0,0-.921,1.324c0,.168-.037.425-.146.491-2.693,1.594-1.2,3.947-.982,5.969C5825.4,884.625,5825,885.824,5823.093,886.685Z" transform="translate(-6.317 -22.826)" fill="#070808"/>
    <path id="Path_2677" data-name="Path 2677" d="M5807.874,872.265c.539-.286.995-.784,1.692-.67,1.016.1,2.109-.621,3.052.285.192,1.336,1.146,2.355,1.516,3.611.238.807.648,1.711-.5,2.233a.843.843,0,0,1-.815-.2c-2.189-2.8-4.945-1.478-7.576-1.063a18.127,18.127,0,0,0-1.585,1.017c-1.008.793-1.2.028-1.433-.7-.153-.8-.3-1.608-.459-2.411-.122-.619-.477-1.274.1-1.82.6-.573,1.241-.11,1.8.112C5805.15,873.251,5806.575,873.559,5807.874,872.265Z" transform="translate(-4.08 -25.327)" fill="#9d9e9f"/>
    <path id="Path_2678" data-name="Path 2678" d="M5844.2,869.162c.846.021.7-.489.435-1.064.824,1.266.824,1.266-.16,2.534C5843.7,870.268,5844.159,869.675,5844.2,869.162Z" transform="translate(-15.717 -24.417)" fill="#3f3e3e"/>
    <path id="Path_2679" data-name="Path 2679" d="M5881.214,839c1.4.709,2.738.018,4.072-.227a1.917,1.917,0,0,1,1.969,1.009c.3.523,1.02.807,1.607,1.238-.558.357-.913-.382-1.542-.137.688.882.532,1.431-.443,2.15-.68.5-.353-1.387-.769-.182a12.575,12.575,0,0,0-.473,1.316c-.238,1.059-1.047.138-1.609.49,2.19,1-.97,1.83.291,2.842-1.133-.133-1.373-.772-1.48-1.561a1.9,1.9,0,0,0-.206,2.312c.321.531,1.515.865.4,1.781-.125-1.377-1.46-1.385-2.25-2.178-.405,1.409.444,2.043,1.217,2.825l-1.757-.609c.3.765-.234,1.573,1.05,2.376-1.267-.295-2.117-1.176-2.79-.063-.415.684.715.584.577,1.31-.963-.925-1.525.1-2.283.281-1.293.307-1.354,2.511-3.06,1.712-.121.521.7.489.491,1.009-1.539-.473-2.788.666-2.963,2.7l-.96-.014c-1.18-3.491-3.21-6.543-5.008-9.716a3.506,3.506,0,0,1-.744-1.536c1.155-.182,1.655-1.768,3.067-1.44.069.016-.009-.307-.009-.472,0-.4.283-.872.552-.688,1.375.94,1.828-.789,2.816-.883l.017-.017c.207-.444.95.116,1.039-.556.76-.646,1.678-1.713,2.4-1.635,1.544.167,1.717-1.078,2.539-1.633s1.958-.587,2.921-1.022C5880.38,839.554,5880.76,839.227,5881.214,839Z" transform="translate(-21.339 -16.376)" fill="#e7e7e8"/>
    <path id="Path_2680" data-name="Path 2680" d="M5937.621,823.242c.184-.825.975.025,1.258-.412-.893-1.836-2.5-3.171-3.137-5.17-.264-.819-1.159-1.454-1.825-2.116-.323-.322-.827-.453-.557-1.09.874-2.064-.721-2.607-2.066-3.3l-.008-.011a8.423,8.423,0,0,0-2.132-2.74c-.707-1.561-1.756-3.031-1.312-4.9a3.622,3.622,0,0,1,.258-.561c2.719,2.046,4.471,4.812,6.371,7.449a8.087,8.087,0,0,0,.7.751c-.082.269-.32.623-.029.8,1.873,1.154,1.9,3.392,2.941,5.043a24.753,24.753,0,0,1,3.316,9.045c-.683-.143-1.223.032-1.648-.942A2.641,2.641,0,0,0,5937.621,823.242Z" transform="translate(-38.647 -6.571)" fill="#787777"/>
    <path id="Path_2681" data-name="Path 2681" d="M5940.935,814.7c-1.66-3.758-4.218-6.961-6.309-10.466,3.285,3.222,5.42,7.27,7.851,11.1.109.769.842,1.424.4,2.384Z" transform="translate(-40.534 -6.922)" fill="#7a7a7a"/>
    <path id="Path_2682" data-name="Path 2682" d="M5861.949,859.886a2.3,2.3,0,0,0-.639-1.752c-1.129-1.557-1.262-3.7-2.9-4.958-.134-.465.133-.883-.61-1.344-1.07-.664-1.1-2.241-1.571-3.427-.027-.063.1-.267.133-.262.272.051.649.045.788.22a29.152,29.152,0,0,1,3.122,4.194,16.851,16.851,0,0,0,3.4,4.563c-.113,1.577,1.022,2.674,1.532,4.011.279.731.961,1.376.537,2.411-.962-.4-1.791-.789-2.1-1.965A3.058,3.058,0,0,0,5861.949,859.886Z" transform="translate(-19.058 -18.951)" fill="#8b8b8b"/>
    <path id="Path_2683" data-name="Path 2683" d="M5929.687,810.467c1.6.218,1.856,1.487,2.132,2.74A4.58,4.58,0,0,1,5929.687,810.467Z" transform="translate(-39.181 -8.631)" fill="#3c3b3c"/>
    <path id="Path_2684" data-name="Path 2684" d="M5868.567,879.144a.789.789,0,0,1-.572.611.491.491,0,0,1-.676-.366c-.09-.4.219-.5.527-.5C5868.107,878.884,5868.443,878.749,5868.567,879.144Z" transform="translate(-22.092 -27.366)" fill="#2a2a2a"/>
    <path id="Path_2685" data-name="Path 2685" d="M5870.624,845.621a7.69,7.69,0,0,1-1.326,2c-.354.515-1.322.079-1.4-1.144-.465.976.015,1.781-.534,2.461-.55-.214-.049-.934-.474-1.221a2.191,2.191,0,0,1-2.7,1.387c-.579-.147-.65-.725-.944-1.114.442-.564.117-1.417.822-2.01.065.523.123.982.23,1.839.572-1.147.05-2.181.752-2.895.351.8-.119,1.669.149,2.742.691-.907.3-1.723.579-2.424.615.3,0,1.082.638,1.445a5.893,5.893,0,0,0,.391-2.374c.5.033.094.973.67.757.254-.095.34-.643.5-.99.426.569.1,1.233.369,1.872a15.854,15.854,0,0,0,.738-3.5c.058.877.115,1.754.186,2.816.7-.906.45-1.946.8-2.943C5870.448,843.519,5869.839,844.68,5870.624,845.621Z" transform="translate(-20.983 -17.359)" fill="#a5a5a7"/>
    <path id="Path_2686" data-name="Path 2686" d="M5883.887,838.117c.042,1,.085,2-1.422,1.292-.221-.1-.524-.214-.549.111-.112,1.565-.723,1.477-1.587.5-.186-.208-.242-.169-.291.022-.16.617-.364,1.117-1.115,1.285-.5.113.1,1.1-.63,1.126a.548.548,0,0,1-.521-.8.773.773,0,0,0-.878.425,2.5,2.5,0,0,1-2.18,1.295c-.347.115-.445-.037-.39-.358.67-1.3.219-2.833.85-4.247.527.743-.2,1.567.382,2.2.453-.627-.01-1.558.762-2.135.063.713.123,1.38.193,2.168.586-.785-.031-1.729.651-2.336.214,1.26,1.395-1.1,1.5.492.5-.46.1-1.055.438-1.529l.439.857c.472-.206.4-.6.438-.932s.067-.685.1-1.028c.8.038.1.8.566,1,.574-.057.241-.684.6-.954.437.163-.088.94.687.985.087-.643.176-1.3.264-1.963h.178c.054.668.106,1.335.188,2.339.314-1,.533-1.688.758-2.4.389.548-.075,1.319.526,1.777Z" transform="translate(-24.012 -15.497)" fill="#989899"/>
    <path id="Path_2687" data-name="Path 2687" d="M5874.063,844.294l.39.358,1.034.741c-.885.27-1.422-.373-2.077-.373-.268-1.65.6-3.185.654-4.82Z" transform="translate(-23.751 -16.775)" fill="#a5a5a7"/>
    <path id="Path_2688" data-name="Path 2688" d="M5803.367,890.143q-.762-1.018-1.521-2.037c.75-.886,1.968-.871,2.871-1.51a28.7,28.7,0,0,1,3.509-1.8,8.045,8.045,0,0,1,2.913-.78c.853-.049,1.126,1,1.2,1.724.081.86-.487.934-1.155.544-.086-.052-.22-.024-.332-.033.483,1.659-1.415,1.475-1.828,2.366-.54,1.166-1.01.509-1.582.067-.563.5.319,2.815-1.72,1.435-.023-.014-.163.123-.229.2C5804.434,891.641,5804.435,891.642,5803.367,890.143Z" transform="translate(-4.162 -28.778)" fill="#f8f8f9"/>
    <path id="Path_2689" data-name="Path 2689" d="M5817.5,877.794a1.878,1.878,0,0,0-.135-2.9,3.047,3.047,0,0,1-.889-2.816c1.487.214,1.262,1.6,1.724,2.517.559,1.34,1.311,2.614,1.134,4.171-.089.789.854,1.078,1.042,1.764-1.742,1.822-1.017,4.086-1.109,6.2-.094,2.173-.752,3.066-2.454,3.315,1.736-1.485,2.7-3.232,1.833-5.568-.117-.317-.313-.855-.491-.863-2.08-.1-.944-1.468-.982-2.367.6-.512.01-.954-.1-1.415C5816.9,879.079,5816.664,878.331,5817.5,877.794Z" transform="translate(-8.164 -25.507)" fill="#525254"/>
    <path id="Path_2690" data-name="Path 2690" d="M5814.81,878.974c-.42,1.088.125,2,.522,2.949.127.3.388.7.03.9-.171.094-.58-.248-.88-.392a6.943,6.943,0,0,0-1.437-2.045,6.747,6.747,0,0,0-6.407-2.567,2.253,2.253,0,0,1,2.153-.913,7.184,7.184,0,0,0,2.9-.38,1.242,1.242,0,0,1,1.748.648A14.224,14.224,0,0,0,5814.81,878.974Z" transform="translate(-5.475 -26.686)" fill="#1f2021"/>
    <path id="Path_2691" data-name="Path 2691" d="M5909.64,842.4c.693,2.346-.688,3.891-2.254,5.536,1.084.124,2.1.156,2.721,1.064a.589.589,0,0,0,.433.258c3.653-.556.927.942.551,1.687a1.942,1.942,0,0,0-.079.446c.574-.05,1.12-.115,1.667-.139.286-.012.8.128.677.349-.821,1.443.479,2.333.925,3.451-.948.4-1.246-.62-1.927-.686-.671,1.681-1.487,3.311-.337,5.132a2.1,2.1,0,0,0,2.146,1.2c.981-.136,1.155-.915,1.09-1.85.769,1.409,3.049,1.636,2.622,3.821-.087.442.453.491.75.208a9.153,9.153,0,0,0,1-1.2c.208-.279.458-.877.535-.852,2.709.879,2.871-2.363,4.693-2.875a3.282,3.282,0,0,1-1.417,3.358c-1.512,1.123-2.36,2.885-4.4,3.586a11.833,11.833,0,0,1-8.262-.415c-.971-.352-1.788-1-2.981-.8-.648.109-1.491-.1-.723-1.379.666-1.11-.437-2.088-1.439-2.5a3.817,3.817,0,0,1-1.733-1.34,14.119,14.119,0,0,0-4.449-3.339.672.672,0,0,0,.167-.915c.03.336.138.667-.163.919-1.875-.889-2.192-2.01-1.037-4.722.1,1.989,1.959,1.586,2.642,2.684.221.356.643.231.906-.057a.652.652,0,0,0-.218-1.142,2.089,2.089,0,0,1-1.219-2.31c.132-1.117.571-1.646,1.714-.834a15.361,15.361,0,0,0,5.476,2.259c.514.123.954.176,1.15-.405.17-.5-.276-.669-.578-.948-.915-.843-2.182-.7-3.2-1.222.18-.4.527-.68.715-1.069,1.712-.8,3.08-1.876,3.2-3.961A1.239,1.239,0,0,1,5909.64,842.4Z" transform="translate(-30.429 -17.377)" fill="#1b1b1b"/>
    <path id="Path_2692" data-name="Path 2692" d="M5897.011,821.4c.069.4-.241.365-.38.5-1.329,1.282-3.2,1.851-4.362,3.349-.189.245-.468.469-.713.213a.9.9,0,0,1-.163-.8,18.557,18.557,0,0,0,.908-3.142c.392-1.268,1.19-1.618,2.356-.952C5895.4,820.988,5896.413,820.717,5897.011,821.4Z" transform="translate(-28.68 -11.305)" fill="#1b1b1b"/>
    <path id="Path_2693" data-name="Path 2693" d="M5934.956,862.468c-.421-1.408-.741-2.785,1.054-3.531C5935.682,860.121,5935.927,861.476,5934.956,862.468Z" transform="translate(-40.535 -21.908)" fill="#1b1b1b"/>
    <path id="Path_2694" data-name="Path 2694" d="M5908.424,849.218c.114.3.7.435.431.838-.253.376-.754.179-1.147.232C5907.115,849.563,5907.119,849.556,5908.424,849.218Z" transform="translate(-33.056 -19.246)" fill="#262626"/>
    <path id="Path_2695" data-name="Path 2695" d="M5858.243,865.146c1.494-.56,2.657-.318,3.348,1.282.111.256.535.376.813.559-.021.331-.211.645-.511.423a4.2,4.2,0,0,0-2.287-.519C5858.627,866.785,5857.792,866.433,5858.243,865.146Z" transform="translate(-19.576 -23.534)" fill="#070707"/>
    <path id="Path_2696" data-name="Path 2696" d="M5817.14,874c-1.151-.444-.837-1.892-1.724-2.517-.9-.486-2.023,1.118-2.824-.3.595-.652,1.944-1.43,2.078-1.228.745,1.131,2.213,1.246,2.92,2.332C5818.091,873.063,5817.157,873.4,5817.14,874Z" transform="translate(-7.105 -24.918)" fill="#232323"/>
    <path id="Path_2697" data-name="Path 2697" d="M5913.157,865.343c.465-.912,1.515.182,1.53-.778a2.977,2.977,0,0,0-2.207-3.115c.566-.744,1.048-.5,1.521-.088a4.122,4.122,0,0,1,1.361,3.317C5915.244,866.23,5914.08,865.26,5913.157,865.343Z" transform="translate(-34.468 -22.465)" fill="#262626"/>
    <path id="Path_2698" data-name="Path 2698" d="M5911.753,865.085a5.911,5.911,0,0,1-.887-4.17A6.91,6.91,0,0,1,5911.753,865.085Z" transform="translate(-34.01 -22.45)" fill="#262626"/>
    <path id="Path_2699" data-name="Path 2699" d="M5899.737,859.06c-.065-.219-.112-.446-.2-.657-.2-.482-1.12-.747-.577-1.42.391-.486.729.091.953.355.51.6,1.015,1.27-.183,1.718Z" transform="translate(-30.718 -21.321)" fill="#0b0b0b"/>
    <path id="Path_2700" data-name="Path 2700" d="M5908.781,862.382c-.794.482-1.173.026-1.31-.666a11.929,11.929,0,0,1-.094-1.8A2.543,2.543,0,0,1,5908.781,862.382Z" transform="translate(-33.07 -22.176)" fill="#0b0b0b"/>
    <path id="Path_2701" data-name="Path 2701" d="M5908.781,862.382q-.7-1.234-1.4-2.468A1.732,1.732,0,0,1,5908.781,862.382Z" transform="translate(-33.07 -22.176)" fill="#262626"/>
    <path id="Path_2702" data-name="Path 2702" d="M5906.438,857.7c0,.3-.074.637-.431.574a.955.955,0,0,1-.615-.512c-.15-.38.251-.452.5-.526C5906.267,857.119,5906.384,857.387,5906.438,857.7Z" transform="translate(-32.518 -21.433)" fill="#0b0b0b"/>
    <path id="Path_2703" data-name="Path 2703" d="M5787.668,889.709a6.868,6.868,0,0,0-1.016,2.769c.221,1.147,0,2.061.406,2.874.207.414.388,1.212.569,1.209,2.2-.036,3.395,1.666,4.99,2.7,1.456.94,1.232,1.507-.485,2.134l1.775.412c2.385-1.356,1.817-4.015,2.666-6.049a.711.711,0,0,0-.34-.362c-.557.05-1.091.063-1.269-.634-1.328-2.348-2.882-4.438-5.742-5.048-.458.031-.848-.43-1.332-.2-.066.055-.155.09-.2.163C5787.683,889.685,5787.676,889.7,5787.668,889.709Z" transform="translate(0 -30.265)" fill="#acaba9"/>
  </g>
</svg>
